<svg xmlns="http://www.w3.org/2000/svg" width="55" height="47" viewBox="0 0 55 47">
  <g id="Amount" transform="translate(-1021 -844)">
    <g id="Rectangle_346" data-name="Rectangle 346" transform="translate(1021 844)" fill="#0e1b3d" stroke="#b6c8f4" stroke-width="1">
      <rect width="55" height="47" stroke="none"/>
      <rect x="0.5" y="0.5" width="54" height="46" fill="none"/>
    </g>
    <g id="money" transform="translate(1033 822.412)">
      <g id="Group_16361" data-name="Group 16361" transform="translate(0 28.588)">
        <g id="Group_16360" data-name="Group 16360">
          <path id="Path_2194" data-name="Path 2194" d="M34.019,45.16h0L27.587,29.01a.669.669,0,0,0-.869-.374h0L.624,39.026a.655.655,0,0,0-.267.213.661.661,0,0,0-.356.58V57.206a.669.669,0,0,0,.669.669H28.756a.669.669,0,0,0,.669-.669v-9.5l4.221-1.681A.669.669,0,0,0,34.019,45.16ZM28.087,56.538H1.337V40.488H28.087ZM11.158,39.154l11.2-4.462a5.32,5.32,0,0,0,3.834,1.653l1.117,2.809Zm18.266,7.12V39.819a.669.669,0,0,0-.669-.669h-.011l-1.417-3.559a.553.553,0,0,0-.055-.084.661.661,0,0,0-.7-.515,4,4,0,0,1-3.506-1.51.663.663,0,0,0-.858-.15.751.751,0,0,0-.094.017L8.445,38.794a.661.661,0,0,0-.367.357H3.927l22.665-9.025,5.938,14.909Z" transform="translate(0 -28.588)" fill="#fff"/>
          <path id="Path_2195" data-name="Path 2195" d="M32.477,197.143a4,4,0,0,1,2.7,2.7.669.669,0,0,0,.641.477.612.612,0,0,0,.1-.015.625.625,0,0,0,.092.019h16.05a.575.575,0,0,0,.082-.017.623.623,0,0,0,.752-.458v0a4,4,0,0,1,2.7-2.7.66.66,0,0,0,.459-.736.673.673,0,0,0,.019-.1v-5.35a.6.6,0,0,0-.02-.1.659.659,0,0,0-.459-.736,3.994,3.994,0,0,1-2.7-2.7.661.661,0,0,0-.741-.459.64.64,0,0,0-.094-.019H36.012a.638.638,0,0,0-.1.02.661.661,0,0,0-.736.459,4,4,0,0,1-2.7,2.7.66.66,0,0,0-.459.736.675.675,0,0,0-.019.1v5.35a.617.617,0,0,0,.019.093A.662.662,0,0,0,32.477,197.143Zm.86-5.914a5.307,5.307,0,0,0,2.946-2.946H51.79a5.308,5.308,0,0,0,2.947,2.946v4.807a5.313,5.313,0,0,0-2.946,2.946H36.284a5.313,5.313,0,0,0-2.946-2.946Z" transform="translate(-29.325 -173.708)" fill="#fff"/>
          <path id="Path_2196" data-name="Path 2196" d="M132.012,226.97A4.012,4.012,0,1,0,128,222.957,4.012,4.012,0,0,0,132.012,226.97Zm0-6.687a2.675,2.675,0,1,1-2.675,2.675A2.675,2.675,0,0,1,132.012,220.283Z" transform="translate(-117.3 -203.033)" fill="#fff"/>
          <path id="Path_2197" data-name="Path 2197" d="M77,256.951a1,1,0,1,0-1-1A1,1,0,0,0,77,256.951Zm0-1.337a.334.334,0,1,1-.334.334A.334.334,0,0,1,77,255.614Z" transform="translate(-69.647 -236.023)" fill="#fff"/>
          <path id="Path_2198" data-name="Path 2198" d="M253,256.951a1,1,0,1,0-1-1A1,1,0,0,0,253,256.951Zm0-1.337a.334.334,0,1,1-.334.334A.334.334,0,0,1,253,255.614Z" transform="translate(-230.935 -236.023)" fill="#fff"/>
        </g>
      </g>
    </g>
  </g>
</svg>
