<svg id="Booking_Receipt" data-name="Booking Receipt" xmlns="http://www.w3.org/2000/svg" width="29.728" height="35.729" viewBox="0 0 29.728 35.729">
  <path id="Path_2179" data-name="Path 2179" d="M14.459,0A5.247,5.247,0,0,0,9.225,5.234V28.842H5.036v2.726A4.166,4.166,0,0,0,9.2,35.729H27.465a4.166,4.166,0,0,0,4.161-4.161V5.234a3.144,3.144,0,0,1,3.138-3.141V0ZM9.2,33.635A2.074,2.074,0,0,1,7.13,31.568v-.632H23.217v.632a4.136,4.136,0,0,0,.55,2.067Zm20.335-28.4V31.568a2.074,2.074,0,0,1-2.067,2.067h-.087a2.074,2.074,0,0,1-2.067-2.067V28.842H11.319V5.234a3.144,3.144,0,0,1,3.141-3.141H30.581a5.208,5.208,0,0,0-1.049,3.141Z" transform="translate(-5.036)" fill="#168fe4"/>
  <path id="Path_2180" data-name="Path 2180" d="M34.321,33.791a3.444,3.444,0,1,0,3.444,3.444A3.444,3.444,0,0,0,34.321,33.791Zm0,4.8a1.351,1.351,0,1,1,1.351-1.351,1.351,1.351,0,0,1-1.351,1.351Z" transform="translate(-15.488 -13.669)" fill="#168fe4"/>
  <path id="Path_2181" data-name="Path 2181" d="M19.057,13.272H33.141v2.094H19.057Z" transform="translate(-10.707 -5.369)" fill="#168fe4"/>
  <path id="Path_2182" data-name="Path 2182" d="M19.057,20.3H33.141v2.094H19.057Z" transform="translate(-10.707 -8.214)" fill="#168fe4"/>
  <path id="Path_2183" data-name="Path 2183" d="M19.057,27.338H33.141v2.094H19.057Z" transform="translate(-10.707 -11.059)" fill="#168fe4"/>
  <path id="Path_2184" data-name="Path 2184" d="M19.057,34.371h4.785v2.094H19.057Z" transform="translate(-10.707 -13.904)" fill="#168fe4"/>
</svg>
