<svg xmlns="http://www.w3.org/2000/svg" width="60.903" height="42.511" viewBox="0 0 60.903 42.511">
  <g id="container_in_truck" data-name="container in truck" transform="translate(0 -136.607)">
    <g id="Group_16381" data-name="Group 16381" transform="translate(2.796 155.118)">
      <path id="Path_2226" data-name="Path 2226" d="M63.263,172.629H23.507V155.976a.858.858,0,0,1,.858-.858H62.4a.858.858,0,0,1,.858.858v16.652Z" transform="translate(-23.507 -155.118)" fill="#80b4fb"/>
      <path id="Path_2227" data-name="Path 2227" d="M335.251,155.118H333.19a.858.858,0,0,1,.858.858v16.652h2.061V155.976A.859.859,0,0,0,335.251,155.118Z" transform="translate(-296.353 -155.118)" fill="#61a2f9"/>
    </g>
    <g id="Group_16394" data-name="Group 16394" transform="translate(2.796 136.607)">
      <path id="Path_2226-2" data-name="Path 2226" d="M63.263,172.629H23.507V155.976a.858.858,0,0,1,.858-.858H62.4a.858.858,0,0,1,.858.858v16.652Z" transform="translate(-23.507 -155.118)" fill="#80b4fb"/>
      <path id="Path_2227-2" data-name="Path 2227" d="M335.251,155.118H333.19a.858.858,0,0,1,.858.858v16.652h2.061V155.976A.859.859,0,0,0,335.251,155.118Z" transform="translate(-296.353 -155.118)" fill="#61a2f9"/>
    </g>
    <g id="Group_16386" data-name="Group 16386" transform="translate(7.67 157.886)">
      <g id="Group_16382" data-name="Group 16382">
        <path id="Path_2228" data-name="Path 2228" d="M65.369,189.885a.892.892,0,0,1-.892-.892v-9.716a.892.892,0,0,1,1.784,0v9.716A.892.892,0,0,1,65.369,189.885Z" transform="translate(-64.477 -178.385)" fill="#f9f6f6"/>
      </g>
      <g id="Group_16383" data-name="Group 16383" transform="translate(7.056)">
        <path id="Path_2229" data-name="Path 2229" d="M124.691,189.885a.892.892,0,0,1-.892-.892v-9.716a.892.892,0,0,1,1.784,0v9.716A.892.892,0,0,1,124.691,189.885Z" transform="translate(-123.799 -178.385)" fill="#f9f6f6"/>
      </g>
      <g id="Group_16384" data-name="Group 16384" transform="translate(21.169)">
        <path id="Path_2230" data-name="Path 2230" d="M243.334,189.885a.892.892,0,0,1-.892-.892v-9.716a.892.892,0,0,1,1.784,0v9.716A.892.892,0,0,1,243.334,189.885Z" transform="translate(-242.442 -178.385)" fill="#f9f6f6"/>
      </g>
      <g id="Group_16385" data-name="Group 16385" transform="translate(28.225)">
        <path id="Path_2231" data-name="Path 2231" d="M302.656,189.885a.892.892,0,0,1-.892-.892v-9.716a.892.892,0,1,1,1.784,0v9.716A.892.892,0,0,1,302.656,189.885Z" transform="translate(-301.764 -178.385)" fill="#f9f6f6"/>
      </g>
    </g>
    <g id="Group_16396" data-name="Group 16396" transform="translate(7.67 139.469)">
      <g id="Group_16382-2" data-name="Group 16382">
        <path id="Path_2228-2" data-name="Path 2228" d="M65.369,189.885a.892.892,0,0,1-.892-.892v-9.716a.892.892,0,0,1,1.784,0v9.716A.892.892,0,0,1,65.369,189.885Z" transform="translate(-64.477 -178.385)" fill="#f9f6f6"/>
      </g>
      <g id="Group_16383-2" data-name="Group 16383" transform="translate(7.056)">
        <path id="Path_2229-2" data-name="Path 2229" d="M124.691,189.885a.892.892,0,0,1-.892-.892v-9.716a.892.892,0,0,1,1.784,0v9.716A.892.892,0,0,1,124.691,189.885Z" transform="translate(-123.799 -178.385)" fill="#f9f6f6"/>
      </g>
      <g id="Group_16384-2" data-name="Group 16384" transform="translate(21.169)">
        <path id="Path_2230-2" data-name="Path 2230" d="M243.334,189.885a.892.892,0,0,1-.892-.892v-9.716a.892.892,0,0,1,1.784,0v9.716A.892.892,0,0,1,243.334,189.885Z" transform="translate(-242.442 -178.385)" fill="#f9f6f6"/>
      </g>
      <g id="Group_16385-2" data-name="Group 16385" transform="translate(28.225)">
        <path id="Path_2231-2" data-name="Path 2231" d="M302.656,189.885a.892.892,0,0,1-.892-.892v-9.716a.892.892,0,1,1,1.784,0v9.716A.892.892,0,0,1,302.656,189.885Z" transform="translate(-301.764 -178.385)" fill="#f9f6f6"/>
      </g>
    </g>
    <g id="Group_16388" data-name="Group 16388" transform="translate(19.298 158.955)">
      <g id="Group_16387" data-name="Group 16387" transform="translate(0 0)">
        <path id="Path_2232" data-name="Path 2232" d="M165.6,195.853a2.019,2.019,0,0,1-2.855-.039l-.467-.48a.136.136,0,0,1,0-.192L165.506,192a.136.136,0,0,0,0-.2l-3.229-3.143a.136.136,0,0,1,0-.192l.467-.48a2.019,2.019,0,0,1,2.855-.039l3,2.923a1.447,1.447,0,0,1,.357.537,1.416,1.416,0,0,1-.34,1.5Z" transform="translate(-162.236 -187.376)" fill="#f9f6f6"/>
      </g>
      <g id="Group_16395" data-name="Group 16395" transform="translate(0 -18.416)">
        <path id="Path_2232-2" data-name="Path 2232" d="M165.6,195.853a2.019,2.019,0,0,1-2.855-.039l-.467-.48a.136.136,0,0,1,0-.192L165.506,192a.136.136,0,0,0,0-.2l-3.229-3.143a.136.136,0,0,1,0-.192l.467-.48a2.019,2.019,0,0,1,2.855-.039l3,2.923a1.447,1.447,0,0,1,.357.537,1.416,1.416,0,0,1-.34,1.5Z" transform="translate(-162.236 -187.376)" fill="#f9f6f6"/>
      </g>
    </g>
    <g id="Group_16389" data-name="Group 16389" transform="translate(0.892 172.153)">
      <path id="Path_2233" data-name="Path 2233" d="M53.621,301.609H8.5A1,1,0,0,1,7.5,300.6v-2.14a.136.136,0,0,1,.136-.136H53.621Z" transform="translate(-7.499 -298.328)" fill="#5986cb"/>
      <path id="Path_2234" data-name="Path 2234" d="M370.257,298.329h2.972v3.281h-2.972Z" transform="translate(-327.107 -298.329)" fill="#4278c3"/>
    </g>
    <g id="Group_16390" data-name="Group 16390" transform="translate(0 173.352)">
      <path id="Path_2235" data-name="Path 2235" d="M3.614,313.716H.892a.892.892,0,1,1,0-1.784h1.83V309.3a.892.892,0,0,1,1.784,0v3.522A.892.892,0,0,1,3.614,313.716Z" transform="translate(0 -308.41)" fill="#26457d"/>
    </g>
    <path id="Path_2236" data-name="Path 2236" d="M393.252,161.156h-8.007v-3.639a.17.17,0,0,1,.2-.169l5.193.771A3.07,3.07,0,0,1,393.252,161.156Z" transform="translate(-339.42 -1.963)" fill="#80b4fb"/>
    <g id="Group_16391" data-name="Group 16391" transform="translate(45.825 158.955)">
      <path id="Path_2237" data-name="Path 2237" d="M394.762,193.713a.706.706,0,0,1-.706-.706l-1.718-5.632h-7.093v16.479h13.422a.764.764,0,0,0,.764-.764v-7.475Z" transform="translate(-385.245 -187.375)" fill="#f9f6f6"/>
    </g>
    <g id="Group_16392" data-name="Group 16392" transform="translate(52.708 158.955)">
      <path id="Path_2238" data-name="Path 2238" d="M480.571,257.562a.764.764,0,0,1-.764.764h2.173a.764.764,0,0,0,.764-.764v-7.475l-2.173-.885v8.361Z" transform="translate(-475.442 -241.847)" fill="#dddaec"/>
      <path id="Path_2239" data-name="Path 2239" d="M443.328,187.4l-.008-.026h-.209A.92.92,0,0,1,443.328,187.4Z" transform="translate(-443.111 -187.375)" fill="#dddaec"/>
    </g>
    <path id="Path_2240" data-name="Path 2240" d="M447.576,187.745a.926.926,0,0,0-.74-.37h-1.964v7.533a.706.706,0,0,0,.706.706h6.386V193.9a.926.926,0,0,0-.185-.556Z" transform="translate(-391.954 -28.42)" fill="#e4f6ff"/>
    <path id="Path_2241" data-name="Path 2241" d="M451.78,193.346l-4.2-5.6a.926.926,0,0,0-.74-.37h-1.964v.024a.925.925,0,0,1,.531.346l4.2,5.6a.926.926,0,0,1,.185.556v1.712h2.173V193.9A.926.926,0,0,0,451.78,193.346Z" transform="translate(-391.955 -28.42)" fill="#d3effb"/>
    <g id="Group_16393" data-name="Group 16393" transform="translate(57.806 169.549)">
      <path id="Path_2242" data-name="Path 2242" d="M488.172,278.225h-1.312a.892.892,0,0,1,0-1.784h1.312a.892.892,0,0,1,0,1.784Z" transform="translate(-485.967 -276.441)" fill="#da4a54"/>
    </g>
    <circle id="Ellipse_424" data-name="Ellipse 424" cx="3.436" cy="3.436" r="3.436" transform="translate(49.482 172.247)" fill="#26457d"/>
    <path id="Path_2243" data-name="Path 2243" d="M438.409,299.119a3.44,3.44,0,0,0-.873.112,3.436,3.436,0,0,1,0,6.646,3.436,3.436,0,1,0,.873-6.759Z" transform="translate(-385.491 -126.872)" fill="#21386b"/>
    <circle id="Ellipse_425" data-name="Ellipse 425" cx="3.436" cy="3.436" r="3.436" transform="translate(29.491 172.247)" fill="#26457d"/>
    <path id="Path_2244" data-name="Path 2244" d="M270.343,299.119a3.44,3.44,0,0,0-.873.112,3.436,3.436,0,0,1,0,6.646,3.436,3.436,0,1,0,.873-6.759Z" transform="translate(-237.416 -126.872)" fill="#21386b"/>
    <circle id="Ellipse_426" data-name="Ellipse 426" cx="3.436" cy="3.436" r="3.436" transform="translate(6.318 172.247)" fill="#26457d"/>
    <path id="Path_2245" data-name="Path 2245" d="M75.535,299.119a3.44,3.44,0,0,0-.873.112,3.436,3.436,0,0,1,0,6.646,3.436,3.436,0,1,0,.873-6.759Z" transform="translate(-65.781 -126.872)" fill="#21386b"/>
  </g>
</svg>
