<svg xmlns="http://www.w3.org/2000/svg" width="92.032" height="42.511" viewBox="0 0 92.032 42.511">
  <g id="containers_completed" data-name="containers completed" transform="translate(-986.24 -762.336)">
    <g id="warehouse" transform="translate(986.24 780.237)">
      <g id="Group_16362" data-name="Group 16362" transform="translate(2.275 2.275)">
        <path id="Path_2199" data-name="Path 2199" d="M16.477,8,7,13.967v14.5H25.955v-14.5Z" transform="translate(-7 -8)" fill="#55a3eb"/>
      </g>
      <path id="Path_2200" data-name="Path 2200" d="M16.477,8,7,13.967v10.7c.127,0,.252.008.379.008,8.226,0,15.056-5.212,16.425-12.066Z" transform="translate(-4.725 -5.725)" fill="#6fbaff"/>
      <path id="Path_2201" data-name="Path 2201" d="M13,32H27.405V43.373H13Z" transform="translate(-8.451 -20.627)" fill="#e0e0e0"/>
      <path id="Path_2202" data-name="Path 2202" d="M41,52h3.033v2.275H41Z" transform="translate(-25.836 -33.045)" fill="#976947"/>
      <g id="Group_16363" data-name="Group 16363" transform="translate(16.301 18.955)">
        <path id="Path_2203" data-name="Path 2203" d="M44,52h.758v1.137H44Z" transform="translate(-44 -52)" fill="#e1c9b1"/>
      </g>
      <path id="Path_2204" data-name="Path 2204" d="M49,52h3.033v2.275H49Z" transform="translate(-30.804 -33.045)" fill="#cda57d"/>
      <g id="Group_16364" data-name="Group 16364" transform="translate(19.334 18.955)">
        <path id="Path_2205" data-name="Path 2205" d="M52,52h.758v1.137H52Z" transform="translate(-52 -52)" fill="#e1c9b1"/>
      </g>
      <path id="Path_2206" data-name="Path 2206" d="M45,46h3.033v2.275H45Z" transform="translate(-28.32 -29.32)" fill="#c18e5c"/>
      <path id="Path_2207" data-name="Path 2207" d="M2,9.2,13.373,2,24.745,9.2l-1.137,1.516L13.373,4.275,3.137,10.719Z" transform="translate(-1.621 -2)" fill="#797979"/>
      <g id="Group_16365" data-name="Group 16365" transform="translate(13.647 15.543)">
        <path id="Path_2208" data-name="Path 2208" d="M45.719,49.065h-7.2a.379.379,0,0,1-.379-.379V43.758H37V43h1.516a.379.379,0,0,1,.379.379v4.928h6.824Z" transform="translate(-37 -43)" fill="#88929f"/>
      </g>
      <g id="Group_16366" data-name="Group 16366" transform="translate(17.817 16.68)">
        <path id="Path_2209" data-name="Path 2209" d="M48,46h.758v1.137H48Z" transform="translate(-48 -46)" fill="#e1c9b1"/>
      </g>
      <path id="Path_2210" data-name="Path 2210" d="M13,44h3.033v2.275H13Z" transform="translate(-8.451 -28.078)" fill="#c18e5c"/>
      <g id="Group_16367" data-name="Group 16367" transform="translate(5.686 15.922)">
        <path id="Path_2211" data-name="Path 2211" d="M16,44h.758v1.137H16Z" transform="translate(-16 -44)" fill="#e1c9b1"/>
      </g>
      <path id="Path_2212" data-name="Path 2212" d="M13,50h3.033v2.275H13Z" transform="translate(-8.451 -31.804)" fill="#cda57d"/>
      <g id="Group_16368" data-name="Group 16368" transform="translate(5.686 18.196)">
        <path id="Path_2213" data-name="Path 2213" d="M16,50h.758v1.137H16Z" transform="translate(-16 -50)" fill="#e1c9b1"/>
      </g>
      <path id="Path_2214" data-name="Path 2214" d="M13,56h3.033v2.275H13Z" transform="translate(-8.451 -35.529)" fill="#c18e5c"/>
      <g id="Group_16369" data-name="Group 16369" transform="translate(5.686 20.471)">
        <path id="Path_2215" data-name="Path 2215" d="M16,56h.758v1.137H16Z" transform="translate(-16 -56)" fill="#e1c9b1"/>
      </g>
      <path id="Path_2216" data-name="Path 2216" d="M21,56h3.033v2.275H21Z" transform="translate(-13.418 -35.529)" fill="#cda57d"/>
      <g id="Group_16370" data-name="Group 16370" transform="translate(8.719 20.471)">
        <path id="Path_2217" data-name="Path 2217" d="M24,56h.758v1.137H24Z" transform="translate(-24 -56)" fill="#e1c9b1"/>
      </g>
      <path id="Path_2218" data-name="Path 2218" d="M29,56h3.033v2.275H29Z" transform="translate(-18.385 -35.529)" fill="#c18e5c"/>
      <g id="Group_16371" data-name="Group 16371" transform="translate(11.752 20.471)">
        <path id="Path_2219" data-name="Path 2219" d="M32,56h.758v1.137H32Z" transform="translate(-32 -56)" fill="#e1c9b1"/>
      </g>
      <path id="Path_2220" data-name="Path 2220" d="M21,50h3.033v2.275H21Z" transform="translate(-13.418 -31.804)" fill="#976947"/>
      <g id="Group_16372" data-name="Group 16372" transform="translate(8.719 18.196)">
        <path id="Path_2221" data-name="Path 2221" d="M24,50h.758v1.137H24Z" transform="translate(-24 -50)" fill="#e1c9b1"/>
      </g>
      <g id="Group_16373" data-name="Group 16373" transform="translate(0 22.366)">
        <path id="Path_2222" data-name="Path 2222" d="M1,61H24.5v.758H1Z" transform="translate(-1 -61)" fill="#88929f"/>
      </g>
      <path id="Path_2223" data-name="Path 2223" d="M20,22h9.1v2.275H20Z" transform="translate(-12.797 -14.418)" fill="#e0e0e0"/>
      <g id="Group_16374" data-name="Group 16374" transform="translate(4.549 12.51)">
        <path id="Path_2224" data-name="Path 2224" d="M13,35H27.405v.758H13Z" transform="translate(-13 -35)" fill="#88929f"/>
      </g>
      <g id="Group_16375" data-name="Group 16375" transform="translate(4.549 14.026)">
        <path id="Path_2225" data-name="Path 2225" d="M13,39H27.405v.758H13Z" transform="translate(-13 -39)" fill="#88929f"/>
      </g>
      <g id="Group_16376" data-name="Group 16376" transform="translate(15.922 21.229)">
        <circle id="Ellipse_418" data-name="Ellipse 418" cx="0.758" cy="0.758" r="0.758" fill="#a0a8b2"/>
        <circle id="Ellipse_419" data-name="Ellipse 419" cx="0.758" cy="0.758" r="0.758" transform="translate(3.791)" fill="#a0a8b2"/>
      </g>
    </g>
    <g id="container-truck" transform="translate(1017.37 762.336)">
      <g id="Group_16381" data-name="Group 16381" transform="translate(18.35 18.511)">
        <path id="Path_2226" data-name="Path 2226" d="M23.507,172.629H63.263V155.976a.858.858,0,0,0-.858-.858H24.365a.858.858,0,0,0-.858.858v16.652Z" transform="translate(-23.507 -155.118)" fill="#80b4fb"/>
        <path id="Path_2227" data-name="Path 2227" d="M334.048,155.118h2.061a.858.858,0,0,0-.858.858v16.652H333.19V155.976A.859.859,0,0,1,334.048,155.118Z" transform="translate(-333.19 -155.118)" fill="#61a2f9"/>
      </g>
      <g id="Group_16394" data-name="Group 16394" transform="translate(18.35)">
        <path id="Path_2226-2" data-name="Path 2226" d="M23.507,172.629H63.263V155.976a.858.858,0,0,0-.858-.858H24.365a.858.858,0,0,0-.858.858v16.652Z" transform="translate(-23.507 -155.118)" fill="#80b4fb"/>
        <path id="Path_2227-2" data-name="Path 2227" d="M334.048,155.118h2.061a.858.858,0,0,0-.858.858v16.652H333.19V155.976A.859.859,0,0,1,334.048,155.118Z" transform="translate(-333.19 -155.118)" fill="#61a2f9"/>
      </g>
      <g id="Group_16386" data-name="Group 16386" transform="translate(23.223 21.279)">
        <g id="Group_16382" data-name="Group 16382" transform="translate(28.225)">
          <path id="Path_2228" data-name="Path 2228" d="M65.369,189.885a.892.892,0,0,0,.892-.892v-9.716a.892.892,0,0,0-1.784,0v9.716A.892.892,0,0,0,65.369,189.885Z" transform="translate(-64.477 -178.385)" fill="#f9f6f6"/>
        </g>
        <g id="Group_16383" data-name="Group 16383" transform="translate(21.169)">
          <path id="Path_2229" data-name="Path 2229" d="M124.691,189.885a.892.892,0,0,0,.892-.892v-9.716a.892.892,0,1,0-1.784,0v9.716A.892.892,0,0,0,124.691,189.885Z" transform="translate(-123.799 -178.385)" fill="#f9f6f6"/>
        </g>
        <g id="Group_16384" data-name="Group 16384" transform="translate(7.056)">
          <path id="Path_2230" data-name="Path 2230" d="M243.334,189.885a.892.892,0,0,0,.892-.892v-9.716a.892.892,0,1,0-1.784,0v9.716A.892.892,0,0,0,243.334,189.885Z" transform="translate(-242.442 -178.385)" fill="#f9f6f6"/>
        </g>
        <g id="Group_16385" data-name="Group 16385" transform="translate(0)">
          <path id="Path_2231" data-name="Path 2231" d="M302.656,189.885a.892.892,0,0,0,.892-.892v-9.716a.892.892,0,0,0-1.784,0v9.716A.892.892,0,0,0,302.656,189.885Z" transform="translate(-301.764 -178.385)" fill="#f9f6f6"/>
        </g>
      </g>
      <g id="Group_16396" data-name="Group 16396" transform="translate(23.223 2.862)">
        <g id="Group_16382-2" data-name="Group 16382" transform="translate(28.225)">
          <path id="Path_2228-2" data-name="Path 2228" d="M65.369,189.885a.892.892,0,0,0,.892-.892v-9.716a.892.892,0,0,0-1.784,0v9.716A.892.892,0,0,0,65.369,189.885Z" transform="translate(-64.477 -178.385)" fill="#f9f6f6"/>
        </g>
        <g id="Group_16383-2" data-name="Group 16383" transform="translate(21.169)">
          <path id="Path_2229-2" data-name="Path 2229" d="M124.691,189.885a.892.892,0,0,0,.892-.892v-9.716a.892.892,0,1,0-1.784,0v9.716A.892.892,0,0,0,124.691,189.885Z" transform="translate(-123.799 -178.385)" fill="#f9f6f6"/>
        </g>
        <g id="Group_16384-2" data-name="Group 16384" transform="translate(7.056)">
          <path id="Path_2230-2" data-name="Path 2230" d="M243.334,189.885a.892.892,0,0,0,.892-.892v-9.716a.892.892,0,1,0-1.784,0v9.716A.892.892,0,0,0,243.334,189.885Z" transform="translate(-242.442 -178.385)" fill="#f9f6f6"/>
        </g>
        <g id="Group_16385-2" data-name="Group 16385" transform="translate(0)">
          <path id="Path_2231-2" data-name="Path 2231" d="M302.656,189.885a.892.892,0,0,0,.892-.892v-9.716a.892.892,0,0,0-1.784,0v9.716A.892.892,0,0,0,302.656,189.885Z" transform="translate(-301.764 -178.385)" fill="#f9f6f6"/>
        </g>
      </g>
      <g id="Group_16388" data-name="Group 16388" transform="translate(34.795 3.932)">
        <g id="Group_16387" data-name="Group 16387" transform="translate(0 18.416)">
          <path id="Path_2232" data-name="Path 2232" d="M165.683,195.853a2.019,2.019,0,0,0,2.855-.039l.467-.48a.136.136,0,0,0,0-.192L165.774,192a.136.136,0,0,1,0-.2L169,188.66a.136.136,0,0,0,0-.192l-.467-.48a2.019,2.019,0,0,0-2.855-.039l-3,2.923a1.447,1.447,0,0,0-.357.537,1.416,1.416,0,0,0,.34,1.5Z" transform="translate(-162.236 -187.376)" fill="#f9f6f6"/>
        </g>
        <g id="Group_16395" data-name="Group 16395" transform="translate(0)">
          <path id="Path_2232-2" data-name="Path 2232" d="M165.683,195.853a2.019,2.019,0,0,0,2.855-.039l.467-.48a.136.136,0,0,0,0-.192L165.774,192a.136.136,0,0,1,0-.2L169,188.66a.136.136,0,0,0,0-.192l-.467-.48a2.019,2.019,0,0,0-2.855-.039l-3,2.923a1.447,1.447,0,0,0-.357.537,1.416,1.416,0,0,0,.34,1.5Z" transform="translate(-162.236 -187.376)" fill="#f9f6f6"/>
        </g>
      </g>
      <g id="Group_16389" data-name="Group 16389" transform="translate(13.888 35.546)">
        <path id="Path_2233" data-name="Path 2233" d="M7.5,301.609H52.616a1,1,0,0,0,1.005-1.005v-2.14a.136.136,0,0,0-.136-.136H7.5Z" transform="translate(-7.499 -298.328)" fill="#5986cb"/>
        <path id="Path_2234" data-name="Path 2234" d="M373.229,298.329h-2.972v3.281h2.972Z" transform="translate(-370.257 -298.329)" fill="#4278c3"/>
      </g>
      <g id="Group_16390" data-name="Group 16390" transform="translate(56.396 36.745)">
        <path id="Path_2235" data-name="Path 2235" d="M.892,313.716H3.614a.892.892,0,1,0,0-1.784H1.784V309.3A.892.892,0,0,0,0,309.3v3.522A.892.892,0,0,0,.892,313.716Z" transform="translate(0 -308.41)" fill="#26457d"/>
      </g>
      <path id="Path_2236" data-name="Path 2236" d="M385.245,161.156h8.007v-3.639a.17.17,0,0,0-.2-.169l-5.193.771A3.07,3.07,0,0,0,385.245,161.156Z" transform="translate(-378.175 -138.57)" fill="#80b4fb"/>
      <g id="Group_16391" data-name="Group 16391" transform="translate(0.892 22.348)">
        <path id="Path_2237" data-name="Path 2237" d="M389.914,193.713a.706.706,0,0,0,.706-.706l1.718-5.632h7.093v16.479H386.009a.764.764,0,0,1-.764-.764v-7.475Z" transform="translate(-385.245 -187.375)" fill="#f9f6f6"/>
      </g>
      <g id="Group_16392" data-name="Group 16392" transform="translate(0.892 22.348)">
        <path id="Path_2238" data-name="Path 2238" d="M481.981,257.562a.764.764,0,0,0,.764.764h-2.173a.764.764,0,0,1-.764-.764v-7.475l2.173-.885v8.361Z" transform="translate(-479.807 -241.847)" fill="#dddaec"/>
        <path id="Path_2239" data-name="Path 2239" d="M443.111,187.4l.008-.026h.209A.92.92,0,0,0,443.111,187.4Z" transform="translate(-436.026 -187.375)" fill="#dddaec"/>
      </g>
      <path id="Path_2240" data-name="Path 2240" d="M449.26,187.745a.926.926,0,0,1,.74-.37h1.964v7.533a.706.706,0,0,1-.706.706h-6.386V193.9a.926.926,0,0,1,.185-.556Z" transform="translate(-443.98 -165.027)" fill="#e4f6ff"/>
      <path id="Path_2241" data-name="Path 2241" d="M445.058,193.346l4.2-5.6a.926.926,0,0,1,.74-.37h1.964v.024a.925.925,0,0,0-.531.346l-4.2,5.6a.926.926,0,0,0-.185.556v1.712h-2.173V193.9A.926.926,0,0,1,445.058,193.346Z" transform="translate(-443.981 -165.027)" fill="#d3effb"/>
      <g id="Group_16393" data-name="Group 16393" transform="translate(0 32.942)">
        <path id="Path_2242" data-name="Path 2242" d="M486.859,278.225h1.312a.892.892,0,0,0,0-1.784h-1.312a.892.892,0,0,0,0,1.784Z" transform="translate(-485.967 -276.441)" fill="#da4a54"/>
      </g>
      <ellipse id="Ellipse_424" data-name="Ellipse 424" cx="3.436" cy="3.436" rx="3.436" ry="3.436" transform="translate(4.549 35.64)" fill="#26457d"/>
      <path id="Path_2243" data-name="Path 2243" d="M440.971,299.119a3.44,3.44,0,0,1,.873.112,3.436,3.436,0,0,0,0,6.646,3.436,3.436,0,1,1-.873-6.759Z" transform="translate(-432.987 -263.479)" fill="#21386b"/>
      <ellipse id="Ellipse_425" data-name="Ellipse 425" cx="3.436" cy="3.436" rx="3.436" ry="3.436" transform="translate(24.541 35.64)" fill="#26457d"/>
      <path id="Path_2244" data-name="Path 2244" d="M272.906,299.119a3.44,3.44,0,0,1,.873.112,3.436,3.436,0,0,0,0,6.646,3.436,3.436,0,1,1-.873-6.759Z" transform="translate(-244.929 -263.479)" fill="#21386b"/>
      <ellipse id="Ellipse_426" data-name="Ellipse 426" cx="3.436" cy="3.436" rx="3.436" ry="3.436" transform="translate(47.713 35.64)" fill="#26457d"/>
      <path id="Path_2245" data-name="Path 2245" d="M78.1,299.119a3.44,3.44,0,0,1,.873.112,3.436,3.436,0,0,0,0,6.646,3.436,3.436,0,1,1-.873-6.759Z" transform="translate(-26.949 -263.479)" fill="#21386b"/>
    </g>
  </g>
</svg>
