<svg xmlns="http://www.w3.org/2000/svg" width="39.756" height="36.022" viewBox="0 0 39.756 36.022">
  <g id="contianers_in_yard" data-name="contianers in yard" transform="translate(-92.998 -763.227)">
    <g id="Group_16397" data-name="Group 16397" transform="translate(92.998 781.737)">
      <path id="Path_2226" data-name="Path 2226" d="M63.263,172.629H23.507V155.976a.858.858,0,0,1,.858-.858H62.4a.858.858,0,0,1,.858.858v16.652Z" transform="translate(-23.507 -155.118)" fill="#80b4fb"/>
      <path id="Path_2227" data-name="Path 2227" d="M335.251,155.118H333.19a.858.858,0,0,1,.858.858v16.652h2.061V155.976A.859.859,0,0,0,335.251,155.118Z" transform="translate(-296.353 -155.118)" fill="#61a2f9"/>
    </g>
    <g id="Group_16398" data-name="Group 16398" transform="translate(92.998 763.227)">
      <path id="Path_2226-2" data-name="Path 2226" d="M63.263,172.629H23.507V155.976a.858.858,0,0,1,.858-.858H62.4a.858.858,0,0,1,.858.858v16.652Z" transform="translate(-23.507 -155.118)" fill="#80b4fb"/>
      <path id="Path_2227-2" data-name="Path 2227" d="M335.251,155.118H333.19a.858.858,0,0,1,.858.858v16.652h2.061V155.976A.859.859,0,0,0,335.251,155.118Z" transform="translate(-296.353 -155.118)" fill="#61a2f9"/>
    </g>
    <g id="Group_16399" data-name="Group 16399" transform="translate(97.872 784.505)">
      <g id="Group_16382" data-name="Group 16382">
        <path id="Path_2228" data-name="Path 2228" d="M65.369,189.885a.892.892,0,0,1-.892-.892v-9.716a.892.892,0,0,1,1.784,0v9.716A.892.892,0,0,1,65.369,189.885Z" transform="translate(-64.477 -178.385)" fill="#f9f6f6"/>
      </g>
      <g id="Group_16383" data-name="Group 16383" transform="translate(7.056)">
        <path id="Path_2229" data-name="Path 2229" d="M124.691,189.885a.892.892,0,0,1-.892-.892v-9.716a.892.892,0,0,1,1.784,0v9.716A.892.892,0,0,1,124.691,189.885Z" transform="translate(-123.799 -178.385)" fill="#f9f6f6"/>
      </g>
      <g id="Group_16384" data-name="Group 16384" transform="translate(21.169)">
        <path id="Path_2230" data-name="Path 2230" d="M243.334,189.885a.892.892,0,0,1-.892-.892v-9.716a.892.892,0,0,1,1.784,0v9.716A.892.892,0,0,1,243.334,189.885Z" transform="translate(-242.442 -178.385)" fill="#f9f6f6"/>
      </g>
      <g id="Group_16385" data-name="Group 16385" transform="translate(28.225)">
        <path id="Path_2231" data-name="Path 2231" d="M302.656,189.885a.892.892,0,0,1-.892-.892v-9.716a.892.892,0,1,1,1.784,0v9.716A.892.892,0,0,1,302.656,189.885Z" transform="translate(-301.764 -178.385)" fill="#f9f6f6"/>
      </g>
    </g>
    <g id="Group_16400" data-name="Group 16400" transform="translate(97.872 766.089)">
      <g id="Group_16382-2" data-name="Group 16382">
        <path id="Path_2228-2" data-name="Path 2228" d="M65.369,189.885a.892.892,0,0,1-.892-.892v-9.716a.892.892,0,0,1,1.784,0v9.716A.892.892,0,0,1,65.369,189.885Z" transform="translate(-64.477 -178.385)" fill="#f9f6f6"/>
      </g>
      <g id="Group_16383-2" data-name="Group 16383" transform="translate(7.056)">
        <path id="Path_2229-2" data-name="Path 2229" d="M124.691,189.885a.892.892,0,0,1-.892-.892v-9.716a.892.892,0,0,1,1.784,0v9.716A.892.892,0,0,1,124.691,189.885Z" transform="translate(-123.799 -178.385)" fill="#f9f6f6"/>
      </g>
      <g id="Group_16384-2" data-name="Group 16384" transform="translate(21.169)">
        <path id="Path_2230-2" data-name="Path 2230" d="M243.334,189.885a.892.892,0,0,1-.892-.892v-9.716a.892.892,0,0,1,1.784,0v9.716A.892.892,0,0,1,243.334,189.885Z" transform="translate(-242.442 -178.385)" fill="#f9f6f6"/>
      </g>
      <g id="Group_16385-2" data-name="Group 16385" transform="translate(28.225)">
        <path id="Path_2231-2" data-name="Path 2231" d="M302.656,189.885a.892.892,0,0,1-.892-.892v-9.716a.892.892,0,1,1,1.784,0v9.716A.892.892,0,0,1,302.656,189.885Z" transform="translate(-301.764 -178.385)" fill="#f9f6f6"/>
      </g>
    </g>
    <g id="Group_16401" data-name="Group 16401" transform="translate(109.5 785.574)">
      <g id="Group_16387" data-name="Group 16387" transform="translate(0 0)">
        <path id="Path_2232" data-name="Path 2232" d="M165.6,195.853a2.019,2.019,0,0,1-2.855-.039l-.467-.48a.136.136,0,0,1,0-.192L165.506,192a.136.136,0,0,0,0-.2l-3.229-3.143a.136.136,0,0,1,0-.192l.467-.48a2.019,2.019,0,0,1,2.855-.039l3,2.923a1.447,1.447,0,0,1,.357.537,1.416,1.416,0,0,1-.34,1.5Z" transform="translate(-162.236 -187.376)" fill="#f9f6f6"/>
      </g>
      <g id="Group_16395" data-name="Group 16395" transform="translate(0 -18.416)">
        <path id="Path_2232-2" data-name="Path 2232" d="M165.6,195.853a2.019,2.019,0,0,1-2.855-.039l-.467-.48a.136.136,0,0,1,0-.192L165.506,192a.136.136,0,0,0,0-.2l-3.229-3.143a.136.136,0,0,1,0-.192l.467-.48a2.019,2.019,0,0,1,2.855-.039l3,2.923a1.447,1.447,0,0,1,.357.537,1.416,1.416,0,0,1-.34,1.5Z" transform="translate(-162.236 -187.376)" fill="#f9f6f6"/>
      </g>
    </g>
  </g>
</svg>
