<svg xmlns="http://www.w3.org/2000/svg" width="17.24" height="22.545" viewBox="0 0 17.24 22.545">
  <g id="delete" transform="translate(0 0)">
    <path id="XMLID_1476_" d="M93.714,178.361a1.984,1.984,0,0,0,1.987,1.89h8.065a1.984,1.984,0,0,0,1.987-1.89L106.914,165H92.552Zm8.009-10.045h1.326v7.294h-1.326Zm-2.652,0H100.4v7.294H99.07Zm-2.652,0h1.326v7.294H96.418Z" transform="translate(-91.113 -157.706)" fill="#ea2428"/>
    <path id="XMLID_1481_" d="M71.935,3.315V1.989A1.992,1.992,0,0,0,69.946,0H67.294A1.992,1.992,0,0,0,65.3,1.989V3.315H60V5.968H77.24V3.315Zm-5.3,0V1.989a.664.664,0,0,1,.663-.663h2.652a.664.664,0,0,1,.663.663V3.315Z" transform="translate(-60 0)" fill="#ea2428"/>
  </g>
</svg>
