<svg xmlns="http://www.w3.org/2000/svg" width="213.9" height="119.718" viewBox="0 0 213.9 119.718">
  <g id="Deleted_image" data-name="Deleted image" transform="translate(0 0)">
    <path id="Path_1" data-name="Path 1" d="M225.466,651.673H192.787s-.662-9.715,3.257-9.826,3.478,4.306,8.39-1.766,10.874-5.741,11.647-2.153-1.49,6.458,2.65,5.575S228.833,644.939,225.466,651.673Z" transform="translate(-180.451 -532.411)" fill="#e6e6e6"/>
    <path id="Path_2" data-name="Path 2" d="M260.489,651.489l-.11,0a33.649,33.649,0,0,1,2.675-12.827,11.641,11.641,0,0,1,2.311-3.551l.073.082a11.566,11.566,0,0,0-2.288,3.523A33.554,33.554,0,0,0,260.489,651.489Z" transform="translate(-232.365 -532.224)" fill="#fff"/>
    <path id="Path_3" data-name="Path 3" d="M311.39,681.856l-.106-.031a17.126,17.126,0,0,1,4.312-7.173l.074.082A17.009,17.009,0,0,0,311.39,681.856Z" transform="translate(-271.438 -562.579)" fill="#fff"/>
    <path id="Path_4" data-name="Path 4" d="M205.506,673.866l-.109-.015a12.024,12.024,0,0,0-1.081-7.028,9.679,9.679,0,0,0-1.706-2.491l.076-.08a9.8,9.8,0,0,1,1.729,2.521A12.134,12.134,0,0,1,205.506,673.866Z" transform="translate(-188.022 -554.597)" fill="#fff"/>
    <path id="Path_5" data-name="Path 5" d="M218.183,638.6H177.545l-.009-.138c-.023-.342-.542-8.42,2.076-11.3a2.867,2.867,0,0,1,2.095-1.005,6.236,6.236,0,0,1,3.643,1.1c1.63.967,2.707,1.606,6.622-3.233,4.241-5.242,8.817-6.37,11.448-5.743a4.083,4.083,0,0,1,3.214,3.142,13.913,13.913,0,0,1,.138,4.062c-.089,1.218-.159,2.179.341,2.615.418.364,1.251.4,2.622.1,2.789-.595,6.682-.086,8.635,2.438,1.051,1.358,1.879,3.826-.145,7.875Zm-40.361-.3H218c1.508-3.06,1.555-5.645.135-7.48-1.792-2.316-5.552-2.925-8.34-2.33-1.49.318-2.378.265-2.878-.17-.612-.533-.536-1.56-.442-2.859a13.7,13.7,0,0,0-.132-3.978,3.8,3.8,0,0,0-2.994-2.917c-2.547-.608-7,.506-11.15,5.641-4.075,5.037-5.3,4.309-7,3.3a5.922,5.922,0,0,0-3.484-1.062,2.582,2.582,0,0,0-1.884.909c-2.352,2.591-2.065,9.854-2.007,10.946Z" transform="translate(-168.733 -519.191)" fill="#2f2e41"/>
    <path id="Path_8" data-name="Path 8" d="M785.382,525.663H745.355l-.008-.224-1.911-54.661H787.3ZM745.8,525.2h39.129l1.887-53.956h-42.9Z" transform="translate(-603.148 -406.09)" fill="#3f3d56"/>
    <g id="Group_1" data-name="Group 1" transform="translate(148.71 74.816)">
      <rect id="Rectangle_17" data-name="Rectangle 17" width="3.045" height="37.675" fill="#3f3d56"/>
      <rect id="Rectangle_18" data-name="Rectangle 18" width="3.045" height="37.675" transform="translate(11.987)" fill="#3f3d56"/>
      <rect id="Rectangle_19" data-name="Rectangle 19" width="3.045" height="37.675" transform="translate(23.975)" fill="#3f3d56"/>
    </g>
    <path id="Path_2448" data-name="Path 2448" d="M876.754,413.128l-.2-.124-49.719-31.42,4.313-6.824.2.124,49.718,31.42ZM827.48,381.44l49.129,31.047,3.816-6.038L831.3,375.4Z" transform="translate(-667.166 -332.389)" fill="#3f3d56"/>
    <path id="Path_10" data-name="Path 10" d="M944.642,388.65a8.939,8.939,0,0,0-13.625,8.848l2.371,1.5a7.053,7.053,0,1,1,6.736,4.258l2.371,1.5a8.939,8.939,0,0,0,2.15-16.1Z" transform="translate(-747.059 -341.987)" fill="#3f3d56"/>
    <rect id="Rectangle_21" data-name="Rectangle 21" width="211.272" height="0.465" transform="translate(0 119.253)" fill="#3f3d56"/>
    <g id="Group_6" data-name="Group 6" transform="translate(67.112 0)">
      <path id="Path_111" data-name="Path 111" d="M520.385,648.778H517l-1.611-13.056h5Z" transform="translate(-495.216 -532.697)" fill="#feb8b8"/>
      <path id="Path_112" data-name="Path 112" d="M494.234,691.844h10.638v-4.11h-6.585a4.053,4.053,0,0,0-4.053,4.053h0Z" transform="translate(-478.978 -572.62)" fill="#2f2e41"/>
      <path id="Path_113" data-name="Path 113" d="M531.766,575.111l2.335,2.451,10.564-7.839-3.446-3.617Z" transform="translate(-507.787 -479.261)" fill="#feb8b8"/>
      <path id="Path_114" data-name="Path 114" d="M527.328,604.482l-4.544-4.767-2.976,2.836,7.34,7.7.041-.039A4.054,4.054,0,0,0,527.328,604.482Z" transform="translate(-498.609 -505.058)" fill="#2f2e41"/>
      <path id="Path_115" data-name="Path 115" d="M429.014,325.74a2.777,2.777,0,0,1,1.328-4.044l13.29-33.87,5.18,3.1L434.049,323.42a2.791,2.791,0,0,1-5.035,2.32Z" transform="translate(-428.596 -265.66)" fill="#feb8b8"/>
      <path id="Path_116" data-name="Path 116" d="M574.446,340.951a2.776,2.776,0,0,1-2.493-3.452L552.347,306.85l5.553-2.371,17.626,31.034a2.791,2.791,0,0,1-1.08,5.439Z" transform="translate(-523.584 -278.442)" fill="#feb8b8"/>
      <path id="Path_117" data-name="Path 117" d="M493.853,428.305l3.47,51.578,8.293-.732,1.707-38.053,4.635,16.343,10,.732L518,425.866Z" transform="translate(-478.686 -371.616)" fill="#2f2e41"/>
      <path id="Path_118" data-name="Path 118" d="M539.384,551.224l-1.464,2.439-10.244,7.074,7.318,3.9s14.147-7.805,12.928-10.245Z" transform="translate(-504.648 -467.838)" fill="#2f2e41"/>
      <path id="Path_119" data-name="Path 119" d="M462.607,288.1l2.887-8.135a14.525,14.525,0,0,1,7.515-8.29h0a20.785,20.785,0,0,1,12.2-.668l1.051.261a20.306,20.306,0,0,1,7.7,3.719c1.779,1.4,3.379,3.178,3.522,5.088a.057.057,0,0,0,0,.012c.493,2.16.737,13.38.737,13.38h-4.346l.688,15.123-.056-.109s-25.068,4.744-25.068,2.3V295.176l-.514-5.653Z" transform="translate(-454.702 -252.281)" fill="#ccc"/>
      <circle id="Ellipse_12" data-name="Ellipse 12" cx="6.947" cy="6.947" r="6.947" transform="translate(24.357 2.72)" fill="#feb8b8"/>
      <path id="Path_120" data-name="Path 120" d="M541.272,199.008l5.394.216a2.945,2.945,0,0,0,1.937-.465c.779-.662.648-1.912.231-2.845-1.162-2.6-3.754-3.53-6.6-3.454s-5.829,1.041-7.362,3.44a11.179,11.179,0,0,0-1.37,8.215,8.956,8.956,0,0,1,7.323-5.106Z" transform="translate(-508.928 -192.456)" fill="#2f2e41"/>
    </g>
    <g id="Group_4" data-name="Group 4" transform="translate(111.607 37.432)">
      <path id="Path_81" data-name="Path 81" d="M639.918,390.579,620.394,376.9a.838.838,0,0,1-.2-1.166l15.324-21.865a.838.838,0,0,1,1.166-.205L656.2,367.344a.838.838,0,0,1,.2,1.166l-15.324,21.864A.838.838,0,0,1,639.918,390.579Z" transform="translate(-620.038 -353.509)" fill="#6c63ff"/>
      <path id="Path_85" data-name="Path 85" d="M707.936,399.519l-4.437-3.11a1.232,1.232,0,0,1,1.414-2.018l4.437,3.11a1.232,1.232,0,1,1-1.414,2.018Z" transform="translate(-683.697 -384.718)" fill="#fff"/>
      <path id="location-pin" d="M8.5.5A5.506,5.506,0,0,0,3,6c0,4.373,4.913,10.086,5.122,10.328l.378.435.378-.436C9.087,16.086,14,10.373,14,6A5.506,5.506,0,0,0,8.5.5Zm0,14.715C7.354,13.791,4,9.336,4,6a4.5,4.5,0,0,1,9,0C13,9.333,9.646,13.791,8.5,15.215Zm0-12.076a3,3,0,1,0,3,3A3,3,0,0,0,8.5,3.139Zm0,5a2,2,0,1,1,2-2A2,2,0,0,1,8.5,8.139Z" transform="translate(13.347 10.128) rotate(30)" fill="#fff"/>
    </g>
  </g>
</svg>
