<svg xmlns="http://www.w3.org/2000/svg" width="17.419" height="20.828" viewBox="0 0 17.419 20.828">
  <g id="Invoice_download" data-name="Invoice download" transform="translate(-41.899 0)">
    <path id="Path_454" data-name="Path 454" d="M57.267,54.658V64.721a1.506,1.506,0,0,1-1.5,1.507H43.4a1.506,1.506,0,0,1-1.5-1.507V48.957a1.505,1.505,0,0,1,1.5-1.507H50.07Z" transform="translate(0 -45.399)" fill="#bed8fb"/>
    <path id="Path_455" data-name="Path 455" d="M90.853,18.777a1.506,1.506,0,0,1-1.5-1.507V1.507A1.505,1.505,0,0,1,90.853,0H97.52c1.146,0,7.2,6.06,7.2,7.208V17.271a1.506,1.506,0,0,1-1.5,1.507Z" transform="translate(-45.399)" fill="#ddeafb"/>
    <path id="Path_456" data-name="Path 456" d="M284.4,7.708v.682a2.6,2.6,0,0,0-2.6-2.6h-1.581a1.611,1.611,0,0,1-1.611-1.611V2.6a2.6,2.6,0,0,0-2.6-2.6h.682a4.628,4.628,0,0,1,3.272,1.355l3.08,3.08A4.628,4.628,0,0,1,284.4,7.708Z" transform="translate(-225.085 0)" fill="#bed8fb"/>
    <g id="Group_587" data-name="Group 587" transform="translate(55.12 16.622) rotate(180)">
      <path id="Path_457" data-name="Path 457" d="M1.42,3.211v4.71a.368.368,0,0,0,.368.368H4.26a.368.368,0,0,0,.368-.368V3.211H5.679a.368.368,0,0,0,.26-.628L3.59.235a.8.8,0,0,0-1.133,0L.108,2.583a.368.368,0,0,0,.26.628Z" transform="translate(0.56 2.512)" fill="#2893ff"/>
      <path id="Path_458" data-name="Path 458" d="M.717,1.454H6.451A.717.717,0,0,0,7.168.737V.717A.717.717,0,0,0,6.451,0H.717A.717.717,0,0,0,0,.717v.02A.717.717,0,0,0,.717,1.454Z" fill="#2893ff"/>
    </g>
  </g>
</svg>
