<svg xmlns="http://www.w3.org/2000/svg" width="27.231" height="31.442" viewBox="0 0 27.231 31.442">
  <g id="Bookings" transform="translate(-0.219 0)">
    <path id="Path_437" data-name="Path 437" d="M26.522,26.043,23.4,22.925V.527A.527.527,0,0,0,22.878,0H7.073c-.01,0-.02.005-.03.006A.494.494,0,0,0,6.9.035a.423.423,0,0,0-.046.016A.527.527,0,0,0,6.7.156L.376,6.478a.519.519,0,0,0-.105.154c-.007.016-.012.033-.017.05a.5.5,0,0,0-.027.135c0,.012-.007.022-.007.033V26.869a.527.527,0,0,0,.527.527H18.933l3.118,3.116a3.161,3.161,0,1,0,4.47-4.469Zm-4.466,2.986-8.2-8.2,2.985-2.985,8.2,8.2ZM13.41,19.787l-.714-3.1,3.1.714ZM6.546,1.8V6.322H2.022ZM1.277,26.342V7.376h5.8A.527.527,0,0,0,7.6,6.849v-5.8H22.351V21.87l-5.138-5.142-.006,0a.526.526,0,0,0-.148-.1l-.044-.016a.557.557,0,0,0-.057-.022l-4.847-1.117a.527.527,0,0,0-.632.632L12.6,20.95a.561.561,0,0,0,.022.057c.005.014.01.028.016.043a.505.505,0,0,0,.1.15l0,0,5.141,5.138Zm24.5,3.427a2.1,2.1,0,0,1-2.975,0l.248-.248,2.732-2.731a2.1,2.1,0,0,1,0,2.977Zm0,0" fill="#0568AE"/>
    <path id="Path_438" data-name="Path 438" d="M64.82,145.054h13.7a.527.527,0,1,0,0-1.054H64.82a.527.527,0,1,0,0,1.054Zm0,0" transform="translate(-59.855 -134.517)" fill="#0568AE"/>
    <path id="Path_439" data-name="Path 439" d="M64.82,193.054h13.7a.527.527,0,1,0,0-1.054H64.82a.527.527,0,1,0,0,1.054Zm0,0" transform="translate(-59.855 -179.356)" fill="#0568AE"/>
    <path id="Path_440" data-name="Path 440" d="M68.508,240H64.82a.527.527,0,1,0,0,1.054h3.688a.527.527,0,1,0,0-1.054Zm0,0" transform="translate(-59.855 -224.195)" fill="#0568AE"/>
  </g>
</svg>
