<svg width="880" height="290" viewBox="0 0 880 290" fill="none" xmlns="http://www.w3.org/2000/svg">
<path d="M137.042 111.484H169.969L157.249 143.401H124.322C124.322 143.401 93.9706 221.581 88.3352 234.155C82.6997 246.728 96.0638 254.707 106.771 255.433C160.308 261.316 211.269 220.775 220.528 164.921C228.739 115.675 201.85 70.9435 158.618 57L137.042 111.484Z" fill="#001738"/>
<path d="M8 142.92C8 144.772 8.0805 146.624 8.16101 148.476C11.0592 83.2478 64.9168 31.2263 130.85 31.2263C198.716 31.2263 253.7 86.2274 253.7 154.113C253.7 220.066 201.694 273.94 136.405 276.839C138.257 276.919 140.108 277 141.96 277C215.944 277 276 217.006 276 143C276 68.9942 216.024 9.00032 141.96 9.00032C68.0565 8.83927 8 68.9137 8 142.92Z" fill="#001738"/>
<path d="M325.006 154.2H342.206C350.906 154.2 357.606 156.5 362.206 161.1C366.806 165.7 369.106 171.6 369.106 178.9C369.106 186 366.806 191.9 362.306 196.6C357.806 201.3 351.306 203.6 342.906 203.6H325.006V154.2ZM328.806 157.4V200.3H342.706C349.106 200.3 354.406 198.3 358.606 194.4C362.806 190.5 365.006 185.3 365.006 178.8C365.006 172.5 362.906 167.3 358.706 163.3C354.506 159.3 349.106 157.3 342.506 157.3H328.806V157.4Z" fill="#001738"/>
<path d="M425.105 154.2H428.905V180.7C428.905 188 427.005 193.6 423.205 197.5C419.405 201.5 414.505 203.4 408.505 203.4C402.505 203.4 397.605 201.4 393.805 197.5C390.005 193.6 388.105 188.3 388.105 181.5V154.1H391.905V181.4C391.905 187.2 393.405 191.7 396.505 195C399.605 198.3 403.605 199.9 408.405 199.9C413.305 199.9 417.305 198.2 420.405 194.9C423.505 191.6 425.005 186.9 425.005 180.8V154.2H425.105Z" fill="#001738"/>
<path d="M450.605 154.2H460.905C466.305 154.2 470.405 155.3 473.105 157.6C475.905 159.9 477.305 163 477.305 166.9C477.305 171.7 474.905 175.3 470.205 177.9C477.805 179.5 481.605 183.7 481.605 190.4C481.605 194.4 480.105 197.6 477.105 199.9C474.105 202.3 470.105 203.5 465.005 203.5H450.605V154.2ZM454.405 157.4V177H459.705C468.705 177 473.105 173.7 473.105 167.2C473.105 160.6 468.605 157.4 459.505 157.4H454.405V157.4ZM454.405 180.2V200.3H464.605C468.805 200.3 472.005 199.4 474.205 197.6C476.405 195.8 477.505 193.4 477.505 190.3C477.505 183.6 472.705 180.2 463.005 180.2H454.405Z" fill="#001738"/>
<path d="M520.805 154.2L543.405 203.4H539.405L531.705 186.5H507.805L500.105 203.4H496.105L518.705 154.2H520.805ZM530.205 183.4L519.705 160.4L509.205 183.4H530.205Z" fill="#001738"/>
<path d="M563.905 154.2H560.105V203.5H563.905V154.2Z" fill="#001738"/>
<path d="M642.204 154.2V157.4H623.704V203.5H619.804V157.4H601.404V154.2H642.204Z" fill="#001738"/>
<path d="M659.006 154.2H671.606C676.906 154.2 680.906 155.3 683.706 157.6C686.506 159.9 687.906 163 687.906 166.9C687.906 172.6 684.806 176.6 678.506 178.9C680.106 179.7 682.306 182.2 685.106 186.4L696.306 203.4H691.806L683.206 189.9C680.306 185.4 678.106 182.6 676.506 181.4C674.906 180.3 672.606 179.7 669.506 179.7H662.806V203.3H659.006V154.2V154.2ZM662.806 157.4V176.7H671.006C675.106 176.7 678.306 175.9 680.506 174.2C682.706 172.5 683.806 170.1 683.806 167.1C683.806 164.1 682.706 161.7 680.506 160C678.306 158.3 675.106 157.5 670.906 157.5H662.806V157.4Z" fill="#001738"/>
<path d="M730.905 154.2L753.505 203.4H749.505L741.805 186.5H717.905L710.205 203.4H706.205L728.805 154.2H730.905ZM740.205 183.2L729.605 160L719.005 183.2H740.205Z" fill="#001738"/>
<path d="M770.305 154.2H787.505C796.205 154.2 802.905 156.5 807.505 161.1C812.105 165.7 814.405 171.6 814.405 178.9C814.405 186 812.105 191.9 807.605 196.6C803.005 201.3 796.605 203.6 788.205 203.6H770.305V154.2V154.2ZM774.105 157.4V200.3H788.005C794.405 200.3 799.705 198.3 803.905 194.4C808.105 190.5 810.305 185.3 810.305 178.8C810.305 172.5 808.205 167.3 804.005 163.3C799.805 159.3 794.405 157.3 787.805 157.3H774.105V157.4Z" fill="#001738"/>
<path d="M861.505 154.2V157.4H838.406V177.1H860.906V180.3H838.406V200.3H862.105V203.5H834.605V154.2H861.505Z" fill="#001738"/>
<path d="M336.305 120.1C330.505 120.1 324.805 114.7 325.005 107.3C325.205 96.1 334.105 92 346.805 92.9V89.7L350.805 88.5L350.905 111.2C351.105 116.9 354.305 120.1 359.705 120.1H363.705V123.9H358.505C350.205 123.9 347.805 118.2 347.105 113.8C347.105 113.7 344.205 120.1 336.305 120.1ZM336.905 116.5C347.605 116.5 346.905 104.7 346.705 96.6C341.905 96.7 329.705 95 329.005 107.2C328.905 109.9 330.505 116.5 336.905 116.5ZM337.505 80H332.905V85H337.505V80ZM347.605 80H343.005V85H347.605V80Z" fill="#001738"/>
<path d="M363.205 123.8V120H402.805C408.205 120 411.505 116.8 411.505 110.9V96.5H415.505V110.4C415.505 114.2 414.605 123.8 403.805 123.8H363.205ZM399.705 133.9H395.105V128.9H399.705V133.9ZM408.205 133.9H403.605V128.9H408.205V133.9Z" fill="#001738"/>
<path d="M437.305 96.6001H441.305V121.1C441.305 128 435.405 133.8 427.905 133.7C424.905 133.7 421.405 132.2 420.605 131.7C420.605 131.7 420.405 129.9 420.105 128C423.105 129.7 426.305 129.9 427.405 129.9C432.505 129.9 436.705 126.7 437.305 121.1V96.6001Z" fill="#001738"/>
<path d="M463.505 123.8C452.705 123.8 451.805 114.2 451.805 110.4V80.1001H455.805V111C455.805 116.8 459.105 120.1 464.505 120.1H468.005V123.9H463.505V123.8Z" fill="#001738"/>
<path d="M467.404 123.8V120H533.204L533.304 115.8C533.504 106 529.004 94.5998 516.904 94.5998C510.604 94.5998 506.004 97.4998 505.204 103.3H501.504C502.204 94.6998 509.204 90.7998 517.004 90.7998C531.404 90.7998 537.504 102.6 537.504 115.7V119.9H548.404V123.7H467.404V123.8ZM519.004 133.8H514.404V128.8H519.004V133.8Z" fill="#001738"/>
<path d="M547.506 123.8V120H576.006C581.406 120 584.706 116.8 584.706 110.9V96.4998H588.706V109C588.906 115.1 591.906 119.9 598.706 119.9H601.706V123.7H599.306C593.706 123.7 589.206 120 587.706 116.4C586.506 120.1 583.606 123.7 577.006 123.7H547.506V123.8ZM578.906 90.7998H574.306V85.7998H578.906V90.7998ZM589.006 90.7998H584.406V85.7998H589.006V90.7998Z" fill="#001738"/>
<path d="M601.404 123.8V120H623.104C628.504 120 631.804 116.7 631.804 110.9V80H635.804V110.4C635.804 114.2 634.904 123.8 624.104 123.8H601.404Z" fill="#001738"/>
<path d="M650.404 80.1001H646.404V123.9H650.404V80.1001Z" fill="#001738"/>
<path d="M759.505 123.7C748.605 123.7 747.805 114.1 747.805 110.3V88.7H725.105C719.605 88.7 717.705 93.3 723.805 96.9C731.005 101.1 737.505 101.1 737.805 109.3C738.205 119.9 727.905 124 720.405 124H687.005C674.405 124 668.905 115.1 668.605 108.4C668.405 105 668.905 100.4 671.205 97.4C672.105 98.2 673.305 99.2 673.905 99.8C672.405 102.5 672.105 106.2 672.405 108.3C672.805 113.1 676.905 120.2 687.305 120.2H720.005C726.505 120.2 733.905 117.5 733.905 109.3C733.905 103.2 728.805 104.3 722.405 100.4C711.205 93.6 717.305 85 724.305 85H751.705V110.8C751.705 116.6 755.005 119.9 760.405 119.9H806.305V123.7H759.505ZM698.705 134H694.205V129.1H698.705V134ZM708.005 134H703.405V129.1H708.005V134Z" fill="#001738"/>
<path d="M806.105 123.7V119.9H812.406C817.806 119.9 821.105 116.7 821.105 110.8V96.3999H825.105V110.2C825.105 114 824.206 123.6 813.406 123.6H806.105V123.7ZM820.805 133.8H816.206V128.8H820.805V133.8Z" fill="#001738"/>
<path d="M855.304 101.6C854.904 96.1002 852.304 94.4002 847.704 94.4002C843.504 94.4002 840.104 95.7002 839.604 100.1H835.304C836.304 93.2002 841.404 90.7002 847.704 90.7002C855.104 90.7002 859.404 94.1002 859.404 101.7V123.7H834.404V119.9H855.304V101.6Z" fill="#001738"/>
</svg>
