<svg xmlns="http://www.w3.org/2000/svg" width="12.36" height="12.361" viewBox="0 0 12.36 12.361">
  <path id="filter" d="M12.378,0H.983A.483.483,0,0,0,.5.483,4.716,4.716,0,0,0,2.081,4L4.2,5.884a1.721,1.721,0,0,1,.577,1.285v4.709a.483.483,0,0,0,.751.4l2.849-1.9a.483.483,0,0,0,.215-.4V7.169a1.721,1.721,0,0,1,.577-1.285L11.279,4A4.716,4.716,0,0,0,12.86.483.483.483,0,0,0,12.378,0Zm-1.74,3.283L8.523,5.162a2.687,2.687,0,0,0-.9,2.007V9.72L5.739,10.975V7.169a2.687,2.687,0,0,0-.9-2.007L2.723,3.283A3.751,3.751,0,0,1,1.5.965H11.863a3.75,3.75,0,0,1-1.226,2.317Zm0,0" transform="translate(-0.5 0)" fill="#168fe4"/>
</svg>
