<svg id="location" xmlns="http://www.w3.org/2000/svg" width="15.741" height="15.741" viewBox="0 0 15.741 15.741">
  <g id="Group_16315" data-name="Group 16315" transform="translate(0)">
    <g id="Group_16314" data-name="Group 16314" transform="translate(0 0)">
      <path id="Path_2167" data-name="Path 2167" d="M5.9,0A5.909,5.909,0,0,0,0,5.9C0,9.995,5.328,15.37,5.555,15.6a.494.494,0,0,0,.7,0c.067-.067.588-.6,1.281-1.4a4.862,4.862,0,0,1-.645-2.392A4.912,4.912,0,0,1,11.7,6.9a5.55,5.55,0,0,0,.105-.995A5.909,5.909,0,0,0,5.9,0Zm0,8.854A2.951,2.951,0,1,1,8.854,5.9,2.955,2.955,0,0,1,5.9,8.854Z" transform="translate(0 0)" fill="#626262CF"/>
    </g>
  </g>
  <g id="Group_16317" data-name="Group 16317" transform="translate(7.871 7.871)">
    <g id="Group_16316" data-name="Group 16316">
      <path id="Path_2168" data-name="Path 2168" d="M259.935,256a3.935,3.935,0,1,0,3.935,3.935A3.935,3.935,0,0,0,259.935,256Zm1.476,4.427h-.984v.984a.492.492,0,0,1-.984,0v-.984h-.984a.492.492,0,0,1,0-.984h.984v-.984a.492.492,0,0,1,.984,0v.984h.984a.492.492,0,0,1,0,.984Z" transform="translate(-256 -256)" fill="#494949"/>
    </g>
  </g>
</svg>
