<svg xmlns="http://www.w3.org/2000/svg" width="19" height="19" viewBox="0 0 19 19">
  <g id="Payment_Failed" data-name="Payment Failed" transform="translate(-799 -635.65)">
    <circle id="Ellipse_445" data-name="Ellipse 445" cx="9.5" cy="9.5" r="9.5" transform="translate(799 635.65)" fill="#fa5357"/>
    <path id="refreshing" d="M14.145,19.652a.69.69,0,0,0-.957.191l-.021.031a6.593,6.593,0,1,0-6.575,7.079.92.92,0,1,0,0-1.84,4.753,4.753,0,1,1,4.719-5.319.69.69,0,0,0-1.111.815l1.366,2.049a.831.831,0,0,0,1.4,0l1.366-2.049A.69.69,0,0,0,14.145,19.652Z" transform="translate(801.273 624.883)" fill="#fff"/>
  </g>
</svg>
