<svg xmlns="http://www.w3.org/2000/svg" width="19" height="19" viewBox="0 0 19 19">
  <g id="Payment_unconfirmed" data-name="Payment unconfirmed" transform="translate(-799 -549.65)">
    <circle id="Ellipse_441" data-name="Ellipse 441" cx="9.5" cy="9.5" r="9.5" transform="translate(799 549.65)" fill="#ff8e0d"/>
    <g id="svgg" transform="translate(694.95 500.164)">
      <path id="path0" d="M82.388,52.737c0,.348-.041.416-.255.416a.336.336,0,0,0-.13.029.615.615,0,0,1-.161.043.276.276,0,0,0-.127.041.251.251,0,0,1-.117.041.669.669,0,0,0-.17.052.38.38,0,0,1-.1.038.54.54,0,0,0-.118.043c-.181.083-.318.148-.392.184a.352.352,0,0,1-.1.037.049.049,0,0,0-.042.029.126.126,0,0,1-.084.043c-.04.007-.072.022-.072.032s-.034.034-.076.054a.291.291,0,0,0-.093.061.056.056,0,0,1-.04.025,1.252,1.252,0,0,0-.292.188.64.64,0,0,1-.119.077,2.369,2.369,0,0,0-.32.253c-.052.045-.119.1-.149.123a6.984,6.984,0,0,0-.519.51.166.166,0,0,1-.04.058,1.838,1.838,0,0,0-.2.234.277.277,0,0,1-.058.068,1.456,1.456,0,0,0-.139.188.837.837,0,0,1-.134.173c-.01,0-.019.011-.02.025a.612.612,0,0,1-.069.137c-.038.062-.1.178-.143.258a.9.9,0,0,1-.1.17.1.1,0,0,0-.03.07.1.1,0,0,1-.03.071.279.279,0,0,0-.054.109.41.41,0,0,1-.049.115.272.272,0,0,0-.04.092.273.273,0,0,1-.04.092.289.289,0,0,0-.039.106.241.241,0,0,1-.041.1.284.284,0,0,0-.042.118,1.137,1.137,0,0,1-.053.188.554.554,0,0,0-.038.142.278.278,0,0,1-.03.1.953.953,0,0,0-.051.227,1.293,1.293,0,0,1-.049.237,1.344,1.344,0,0,0-.042.28,1.238,1.238,0,0,1-.033.247,3.867,3.867,0,0,0-.013.935,3.993,3.993,0,0,1,.046.417,1.526,1.526,0,0,0,.052.355.711.711,0,0,1,.038.179.424.424,0,0,0,.029.136,1.237,1.237,0,0,1,.052.188,1.07,1.07,0,0,0,.055.188.641.641,0,0,1,.042.153.325.325,0,0,0,.049.132.179.179,0,0,1,.038.087.34.34,0,0,0,.041.114.343.343,0,0,1,.041.109.089.089,0,0,0,.031.059.082.082,0,0,1,.031.047.844.844,0,0,0,.058.145c.032.068.064.137.072.154s.035.067.062.112.063.109.08.142.054.1.082.142.066.108.084.14a.71.71,0,0,0,.052.081,2.547,2.547,0,0,1,.2.276.265.265,0,0,0,.051.074l.074.086c.127.155.272.318.368.415a.666.666,0,0,1,.117.138.019.019,0,0,0,.018.02.757.757,0,0,1,.137.113c.066.062.191.169.277.238a.946.946,0,0,1,.158.141c0,.009.01.017.022.017a1.156,1.156,0,0,1,.222.142,2.154,2.154,0,0,0,.318.2.157.157,0,0,1,.058.042.271.271,0,0,0,.094.054c.044.018.08.039.08.048s.027.022.06.03a.176.176,0,0,1,.083.041.176.176,0,0,0,.083.041.136.136,0,0,1,.075.039.15.15,0,0,0,.083.039.383.383,0,0,1,.125.054.23.23,0,0,0,.085.042.44.44,0,0,1,.109.04.407.407,0,0,0,.123.04.2.2,0,0,1,.09.035.445.445,0,0,0,.15.05.339.339,0,0,1,.134.046.354.354,0,0,0,.145.044.508.508,0,0,1,.154.04.475.475,0,0,0,.163.033l.121.007.006-.28c.008-.395,0-.406-.159-.435a1.14,1.14,0,0,1-.207-.056.394.394,0,0,0-.111-.033.414.414,0,0,1-.118-.039.753.753,0,0,0-.157-.051.2.2,0,0,1-.1-.043.118.118,0,0,0-.08-.03.139.139,0,0,1-.09-.039.3.3,0,0,0-.122-.061.272.272,0,0,1-.113-.053.087.087,0,0,0-.056-.031.187.187,0,0,1-.082-.041.187.187,0,0,0-.089-.041.068.068,0,0,1-.053-.027A.207.207,0,0,0,80.726,64a.156.156,0,0,1-.076-.055.043.043,0,0,0-.034-.029.679.679,0,0,1-.222-.146c0-.009-.012-.017-.027-.017a1.373,1.373,0,0,1-.318-.247c0-.009-.014-.017-.03-.017a.083.083,0,0,1-.056-.041c-.014-.022-.035-.041-.048-.041a.357.357,0,0,1-.1-.086c-.045-.048-.148-.151-.228-.229a3.487,3.487,0,0,1-.239-.259.548.548,0,0,0-.111-.117.02.02,0,0,1-.017-.022.589.589,0,0,0-.092-.134.559.559,0,0,1-.092-.136c0-.013-.018-.035-.041-.049a.082.082,0,0,1-.041-.053.12.12,0,0,0-.041-.064.12.12,0,0,1-.041-.062.085.085,0,0,0-.032-.051.321.321,0,0,1-.062-.089c-.017-.034-.052-.1-.079-.144a1.036,1.036,0,0,1-.073-.153.278.278,0,0,0-.039-.081,2.463,2.463,0,0,1-.224-.52.262.262,0,0,0-.039-.1.5.5,0,0,1-.053-.13.645.645,0,0,0-.041-.122.7.7,0,0,1-.041-.168.649.649,0,0,0-.041-.163.9.9,0,0,1-.041-.224.832.832,0,0,0-.048-.233,8.837,8.837,0,0,1,0-1.632.805.805,0,0,0,.048-.224.7.7,0,0,1,.039-.2.531.531,0,0,0,.039-.159.518.518,0,0,1,.042-.163.6.6,0,0,0,.05-.152.6.6,0,0,1,.051-.153.426.426,0,0,0,.043-.116.368.368,0,0,1,.043-.111.155.155,0,0,0,.028-.068.206.206,0,0,1,.038-.082.389.389,0,0,0,.052-.119.188.188,0,0,1,.042-.088.176.176,0,0,0,.041-.083.144.144,0,0,1,.037-.075.675.675,0,0,0,.126-.205,1.449,1.449,0,0,1,.1-.168.533.533,0,0,0,.07-.12.054.054,0,0,1,.028-.036.238.238,0,0,0,.06-.077.9.9,0,0,1,.1-.138c.037-.042.083-.1.1-.122a3.665,3.665,0,0,1,.409-.45c.278-.271.319-.308.364-.324.02-.007.036-.021.036-.03a3.749,3.749,0,0,1,.475-.361,4.176,4.176,0,0,1,.441-.255c.028-.013.065-.031.081-.041a1.1,1.1,0,0,1,.1-.049.892.892,0,0,0,.1-.051.583.583,0,0,1,.081-.04,1.067,1.067,0,0,0,.1-.049.528.528,0,0,1,.132-.044.262.262,0,0,0,.107-.042.232.232,0,0,1,.1-.039.713.713,0,0,0,.146-.043,1.209,1.209,0,0,1,.355-.074c.1,0,.114.046.114.315s0,.27.151.189a.474.474,0,0,1,.124-.051.07.07,0,0,0,.049-.038.134.134,0,0,1,.077-.052.252.252,0,0,0,.087-.041.26.26,0,0,1,.081-.042.269.269,0,0,0,.081-.041.276.276,0,0,1,.081-.041.369.369,0,0,0,.1-.053.185.185,0,0,1,.068-.038.2.2,0,0,0,.071-.041.2.2,0,0,1,.1-.041.081.081,0,0,0,.063-.027.752.752,0,0,1,.169-.1,2.276,2.276,0,0,0,.288-.158.419.419,0,0,1,.105-.048c.118-.03.142-.13.032-.131a.122.122,0,0,1-.069-.041.124.124,0,0,0-.074-.041.138.138,0,0,1-.078-.041.141.141,0,0,0-.06-.041.835.835,0,0,1-.144-.066l-.179-.093c-.03-.015-.068-.035-.085-.045s-.1-.052-.178-.092a.515.515,0,0,1-.147-.091c0-.01-.036-.028-.079-.039a.254.254,0,0,1-.1-.05.177.177,0,0,0-.084-.042.142.142,0,0,1-.072-.033.284.284,0,0,0-.092-.051c-.044-.018-.08-.04-.08-.05s-.012-.018-.026-.018a.368.368,0,0,1-.1-.039l-.076-.039v.251m2.375.409a4.425,4.425,0,0,0,0,.6c.011.056.088.093.253.12a.623.623,0,0,1,.157.049.3.3,0,0,0,.111.034.4.4,0,0,1,.128.039,1.146,1.146,0,0,0,.168.062.243.243,0,0,1,.1.042.063.063,0,0,0,.049.02.188.188,0,0,1,.089.041.322.322,0,0,0,.114.053.206.206,0,0,1,.1.051.116.116,0,0,0,.069.038.187.187,0,0,1,.087.041.2.2,0,0,0,.071.041,1.825,1.825,0,0,1,.362.218l.053.036a2.255,2.255,0,0,1,.389.307.055.055,0,0,0,.038.028,4.329,4.329,0,0,1,.729.722c0,.012.018.033.041.047s.041.034.041.043a.294.294,0,0,0,.063.085,3.692,3.692,0,0,1,.352.527.17.17,0,0,0,.033.061.983.983,0,0,1,.123.2c.013.028.031.065.041.081a.518.518,0,0,1,.031.061c.027.067.115.259.152.33a.345.345,0,0,1,.039.112.318.318,0,0,0,.038.108.635.635,0,0,1,.053.162.443.443,0,0,0,.044.135.452.452,0,0,1,.041.153.481.481,0,0,0,.038.151.614.614,0,0,1,.039.183,1.113,1.113,0,0,0,.048.233,10.253,10.253,0,0,1,.008,1.664.969.969,0,0,0-.047.233,1.1,1.1,0,0,1-.047.238.6.6,0,0,0-.039.15.706.706,0,0,1-.042.163.746.746,0,0,0-.043.136.268.268,0,0,1-.041.1.368.368,0,0,0-.048.123.768.768,0,0,1-.052.152.284.284,0,0,0-.032.09.19.19,0,0,1-.04.081.188.188,0,0,0-.04.084.18.18,0,0,1-.038.081.369.369,0,0,0-.053.1.289.289,0,0,1-.04.081.465.465,0,0,0-.051.1c-.014.036-.034.066-.044.066a.021.021,0,0,0-.018.023,1.172,1.172,0,0,1-.117.2l-.148.218-.07.1a1.023,1.023,0,0,1-.071.094c-.017.019-.05.059-.072.09-.049.066-.365.4-.519.548a4.552,4.552,0,0,1-.6.477c-.015,0-.028.008-.028.017a.679.679,0,0,1-.222.146.043.043,0,0,0-.034.029.156.156,0,0,1-.076.055.21.21,0,0,0-.08.05.138.138,0,0,1-.071.038.253.253,0,0,0-.079.033,1.029,1.029,0,0,1-.267.129.217.217,0,0,0-.1.053.14.14,0,0,1-.091.04.118.118,0,0,0-.08.03.2.2,0,0,1-.1.044.608.608,0,0,0-.145.051.335.335,0,0,1-.122.038.427.427,0,0,0-.133.038c-.256.116-.365.068-.359-.16a.834.834,0,0,1,.014-.165.274.274,0,0,0-.013-.109c-.023-.092-.064-.121-.087-.062a.047.047,0,0,1-.038.031,1.039,1.039,0,0,0-.26.132.27.27,0,0,1-.1.04c-.036.008-.066.021-.066.03s-.025.026-.056.037a.863.863,0,0,0-.2.1c-.045.027-.112.064-.15.082a.432.432,0,0,0-.1.061.108.108,0,0,1-.065.029.12.12,0,0,0-.072.04.209.209,0,0,1-.095.052c-.032.007-.059.021-.059.03s-.034.028-.076.042a.661.661,0,0,0-.127.058,1.093,1.093,0,0,1-.188.108c-.1.042-.055.085.222.216a.348.348,0,0,1,.1.06.149.149,0,0,0,.075.034.113.113,0,0,1,.073.042.062.062,0,0,0,.056.029.163.163,0,0,1,.084.031.914.914,0,0,0,.121.071c.045.022.1.05.112.061a.539.539,0,0,0,.081.042c.028.011.124.062.214.112s.2.106.239.124.076.04.076.05.027.023.061.03a.135.135,0,0,1,.076.041c.023.04.119.06.139.028a1.329,1.329,0,0,0,.011-.273c-.006-.285,0-.289.164-.312a.614.614,0,0,0,.149-.036.548.548,0,0,1,.135-.035.664.664,0,0,0,.172-.053.363.363,0,0,1,.125-.04.342.342,0,0,0,.123-.041.365.365,0,0,1,.107-.041.425.425,0,0,0,.112-.04.42.42,0,0,1,.114-.04.194.194,0,0,0,.085-.042.333.333,0,0,1,.12-.054.15.15,0,0,0,.083-.039.136.136,0,0,1,.075-.039.177.177,0,0,0,.084-.042.089.089,0,0,1,.06-.029.187.187,0,0,0,.087-.041.2.2,0,0,1,.072-.041.223.223,0,0,0,.078-.047.577.577,0,0,1,.088-.061,3.6,3.6,0,0,0,.444-.293.091.091,0,0,1,.043-.026.268.268,0,0,0,.077-.056,3.13,3.13,0,0,1,.392-.31.024.024,0,0,0,.021-.026c0-.014.029-.048.063-.076a1.046,1.046,0,0,0,.086-.076l.166-.173c.078-.081.179-.194.224-.25.075-.094.1-.123.2-.229a.151.151,0,0,0,.036-.051.8.8,0,0,1,.144-.2c.008,0,.02-.023.027-.051s.022-.051.032-.051.034-.03.051-.066a1.634,1.634,0,0,1,.09-.158c.033-.05.077-.124.1-.163a4.152,4.152,0,0,0,.248-.493c.014-.042.032-.076.041-.076s.026-.034.038-.076a1.586,1.586,0,0,1,.12-.314.344.344,0,0,0,.036-.116.833.833,0,0,1,.053-.173.432.432,0,0,0,.038-.13.749.749,0,0,1,.041-.162.717.717,0,0,0,.041-.178.806.806,0,0,1,.04-.184,2.107,2.107,0,0,0,.061-.417,3.1,3.1,0,0,1,.042-.366,4.712,4.712,0,0,0,0-.865c-.011-.056-.033-.212-.048-.346a2.465,2.465,0,0,0-.06-.344.7.7,0,0,1-.032-.174.73.73,0,0,0-.041-.19.768.768,0,0,1-.041-.152.263.263,0,0,0-.03-.093.86.86,0,0,1-.053-.178.367.367,0,0,0-.052-.144.1.1,0,0,1-.028-.067.319.319,0,0,0-.038-.114A.646.646,0,0,1,89.3,56.8c-.008-.036-.023-.066-.032-.066s-.028-.039-.041-.086a.455.455,0,0,0-.062-.135.179.179,0,0,1-.039-.085.09.09,0,0,0-.03-.06.253.253,0,0,1-.052-.094c-.013-.038-.03-.07-.039-.07s-.031-.034-.049-.076a1.577,1.577,0,0,0-.083-.158c-.028-.045-.062-.1-.076-.132a.54.54,0,0,0-.053-.081.705.705,0,0,1-.126-.178.124.124,0,0,0-.041-.056.132.132,0,0,1-.041-.052.257.257,0,0,0-.056-.074c-.031-.032-.088-.1-.127-.147s-.092-.109-.117-.133a.173.173,0,0,1-.046-.06.84.84,0,0,0-.122-.134.664.664,0,0,1-.122-.14.02.02,0,0,0-.018-.021.641.641,0,0,1-.127-.1c-.06-.058-.141-.129-.18-.158a3.033,3.033,0,0,1-.366-.312c0-.009-.011-.016-.024-.016a.809.809,0,0,1-.164-.1,3.339,3.339,0,0,0-.4-.251c-.048-.024-.086-.052-.086-.062s-.017-.018-.038-.018a.179.179,0,0,1-.086-.038.331.331,0,0,0-.1-.051.21.21,0,0,1-.081-.039.361.361,0,0,0-.113-.052c-.048-.014-.086-.034-.086-.044s-.032-.025-.07-.032a.194.194,0,0,1-.094-.041.2.2,0,0,0-.1-.042.607.607,0,0,1-.145-.051.329.329,0,0,0-.123-.038.367.367,0,0,1-.13-.04.666.666,0,0,0-.172-.054.592.592,0,0,1-.145-.039.741.741,0,0,0-.331-.037m-3,2.973c-.241.014-.313.492-.085.565.02.006.037.018.037.026s3.636.01,3.667-.01c.014-.009.043-.026.064-.037.205-.108.121-.538-.106-.54-.487-.005-3.5-.008-3.577,0m.117.774a2.936,2.936,0,0,0,.025.894.127.127,0,0,1,.034.062.74.74,0,0,0,.088.2,4.794,4.794,0,0,0,.441.5c.1.1.248.257.34.357l.211.226a.318.318,0,0,1,.046.263,2.978,2.978,0,0,1-.47.529,4.01,4.01,0,0,0-.29.314c0,.01-.013.025-.029.034a.568.568,0,0,0-.1.1,1.239,1.239,0,0,0-.232.358.257.257,0,0,1-.046.1c-.027.031-.033.1-.033.42,0,.4.005.433.071.392a.2.2,0,0,1,.089-.025h.049l.007-.332c.006-.273.013-.341.043-.386a.215.215,0,0,0,.036-.082,2.122,2.122,0,0,1,.468-.587c.115-.12.373-.4.5-.535.208-.229.253-.4.152-.57-.033-.056-.071-.127-.085-.158s-.037-.056-.052-.056a.047.047,0,0,1-.038-.03c-.006-.017-.195-.216-.418-.442-.372-.377-.433-.45-.506-.605-.013-.028-.039-.078-.057-.112a1.223,1.223,0,0,1-.04-.442c-.005-.3-.013-.381-.033-.381a.654.654,0,0,1-.085-.011.144.144,0,0,0-.087.008m3.192,0-.051.014-.01.387c-.008.322-.016.4-.046.441a.215.215,0,0,0-.036.081,2.5,2.5,0,0,1-.521.619c-.48.486-.5.512-.607.736-.062.132-.063.144-.011.237a.332.332,0,0,1,.041.1,4.048,4.048,0,0,0,.435.508.391.391,0,0,1,.074.083.484.484,0,0,0,.145.135.02.02,0,0,1,.017.022.383.383,0,0,0,.086.108,1.706,1.706,0,0,1,.321.395.837.837,0,0,0,.051.116c.046.095.05.124.05.413,0,.232.007.313.026.317l.1.029a.179.179,0,0,0,.078.015,2.219,2.219,0,0,0-.02-.826.413.413,0,0,1-.045-.115.216.216,0,0,0-.053-.1.119.119,0,0,1-.04-.056.4.4,0,0,0-.076-.105c-.042-.047-.1-.115-.127-.152s-.126-.143-.219-.237-.168-.174-.168-.178a2,2,0,0,0-.138-.148c-.413-.421-.412-.441.046-.917.616-.64.746-.793.775-.917a.422.422,0,0,1,.045-.107,2.5,2.5,0,0,0,.045-.723c-.011-.2-.025-.215-.163-.176m-2.289,1.082c-.007.011.028.063.078.116s.116.127.149.164.093.1.135.146a.34.34,0,0,1,.076.1.054.054,0,0,0,.029.037,1.034,1.034,0,0,1,.242.331c.019.1.1.081.122-.026a.149.149,0,0,1,.046-.089.043.043,0,0,0,.028-.034,1.8,1.8,0,0,1,.274-.322.32.32,0,0,0,.071-.1c0-.011.018-.026.041-.033s.041-.024.041-.037a.332.332,0,0,1,.081-.1c.168-.166.105-.214-.132-.1a2.443,2.443,0,0,1-1.078-.016c-.082-.041-.189-.059-.2-.034m.75,2.009a.245.245,0,0,0-.047.1.182.182,0,0,1-.051.1.087.087,0,0,0-.039.055,3,3,0,0,1-.427.461.9.9,0,0,0-.142.132.971.971,0,0,1-.141.132,1.724,1.724,0,0,0-.318.389c-.075.143-.09.335-.023.293.026-.016,2.391-.02,2.418,0,.061.038.038-.18-.032-.291a2.3,2.3,0,0,0-.467-.527.15.15,0,0,1-.066-.086.035.035,0,0,0-.037-.039,2.206,2.206,0,0,1-.461-.469.165.165,0,0,0-.046-.072.187.187,0,0,1-.043-.1c-.013-.08-.035-.1-.077-.076m-1.864,1.882c-.164.055-.168.43,0,.549.011.008.865.015,1.9.015H85.44l.061-.1c.1-.153.055-.426-.07-.466-.058-.019-3.7-.021-3.76,0" transform="translate(30)" fill="#fff" fill-rule="evenodd"/>
    </g>
  </g>
</svg>
