<svg xmlns="http://www.w3.org/2000/svg" width="27.831" height="31.807" viewBox="0 0 27.831 31.807">
  <g id="pdf_icon" data-name="pdf icon" transform="translate(-19.329)">
    <path id="Path_2382" data-name="Path 2382" d="M21.317,0h16.89l5.028,5.008,3.925,3.91v20.9a1.988,1.988,0,0,1-1.988,1.988H21.317a1.988,1.988,0,0,1-1.988-1.988V1.988A1.988,1.988,0,0,1,21.317,0Z" transform="translate(0 0)" fill="#007cd3"/>
    <path id="Path_2383" data-name="Path 2383" d="M211.873,9.119h-6.929a1.992,1.992,0,0,1-1.988-1.988V.193Z" transform="translate(-164.742 -0.173)" fill="#b6c8f4"/>
    <path id="Path_2384" data-name="Path 2384" d="M100.483,136.563a.578.578,0,0,0,0-1.144h-1.9a.593.593,0,0,0-.578.646v4.661c0,.416.236.646.556.646s.556-.231.556-.646v-1.281h1.147a.539.539,0,0,0,.534-.581.529.529,0,0,0-.534-.565H99.121v-1.738Zm-6.41-1.144H92.686a.613.613,0,0,0-.644.64v4.669a.611.611,0,0,0,.66.625h1.456a2.7,2.7,0,0,0,2.862-2.885,2.771,2.771,0,0,0-2.946-3.05Zm.063,4.785h-.843v-3.634h.762c1.154,0,1.656.774,1.656,1.843C95.712,139.413,95.219,140.2,94.136,140.2Zm-5.083-4.785H87.682a.578.578,0,0,0-.606.646v4.661a.586.586,0,1,0,1.165,0v-1.361H89.1a1.882,1.882,0,0,0,1.941-1.965,1.9,1.9,0,0,0-1.987-1.981Zm-.023,2.853h-.789v-1.758h.792a.883.883,0,0,1,0,1.758Z" transform="translate(-60.78 -121.492)" fill="#fff"/>
  </g>
</svg>
