<svg xmlns="http://www.w3.org/2000/svg" width="31.293" height="31.298" viewBox="0 0 31.293 31.298">
  <g id="POD_pending" data-name="POD pending" transform="translate(-0.037)">
    <path id="Path_2365" data-name="Path 2365" d="M145.8,7.4V30.381a.908.908,0,0,1-.917.917H122.88a.908.908,0,0,1-.917-.917V.917A.908.908,0,0,1,122.88,0h15.588Z" transform="translate(-114.473)" fill="#edf5ff"/>
    <path id="Path_2366" data-name="Path 2366" d="M328.883,7.4V30.381a.908.908,0,0,1-.917.917h-11V0h4.585Z" transform="translate(-297.553)" fill="#d7e9ff"/>
    <path id="Path_2367" data-name="Path 2367" d="M198.468,151.917v14.671a.908.908,0,0,1-.917.917H182.88a.908.908,0,0,1-.917-.917V151.917a.908.908,0,0,1,.917-.917h14.671A.908.908,0,0,1,198.468,151.917Z" transform="translate(-170.805 -141.77)" fill="#979fef"/>
    <path id="Path_2368" data-name="Path 2368" d="M325.215,151.917v14.671a.908.908,0,0,1-.917.917h-7.335V151H324.3A.908.908,0,0,1,325.215,151.917Z" transform="translate(-297.553 -141.77)" fill="#737ee6"/>
    <path id="Path_2369" data-name="Path 2369" d="M20.144,186.868c-.183-.238-4.438-5.868-9.9-5.868S.4,186.63.216,186.868a.936.936,0,0,0,0,1.1c.183.238,4.56,5.868,10.025,5.868s9.719-5.63,9.9-5.868A.936.936,0,0,0,20.144,186.868Z" transform="translate(0 -169.936)" fill="#ffda2d"/>
    <path id="Path_2370" data-name="Path 2370" d="M176.866,187.969c-.183.238-4.438,5.868-9.9,5.868V181c5.465,0,9.719,5.63,9.9,5.868A.936.936,0,0,1,176.866,187.969Z" transform="translate(-156.722 -169.936)" fill="#fdbf00"/>
    <path id="Path_2371" data-name="Path 2371" d="M124.714,241a2.751,2.751,0,1,0,2.751,2.751A2.747,2.747,0,0,0,124.714,241Z" transform="translate(-114.473 -226.268)" fill="#47568c"/>
    <path id="Path_2372" data-name="Path 2372" d="M169.714,243.751a2.747,2.747,0,0,1-2.751,2.751V241A2.747,2.747,0,0,1,169.714,243.751Z" transform="translate(-156.722 -226.268)" fill="#2c3b73"/>
    <path id="Path_2373" data-name="Path 2373" d="M153.8,271.917a.917.917,0,1,1-.917-.917A.908.908,0,0,1,153.8,271.917Z" transform="translate(-142.639 -254.434)" fill="#edf5ff"/>
    <path id="Path_2374" data-name="Path 2374" d="M167.88,271.917a.908.908,0,0,1-.917.917V271A.908.908,0,0,1,167.88,271.917Z" transform="translate(-156.722 -254.434)" fill="#d7e9ff"/>
    <path id="Path_2375" data-name="Path 2375" d="M399.03,5.831l-5.5-5.563A.916.916,0,0,0,392.88,0h-.917V6.48a.917.917,0,0,0,.917.917H399.3V6.48A.916.916,0,0,0,399.03,5.831Z" transform="translate(-367.968 0)" fill="#b0d5f7"/>
    <path id="Path_2376" data-name="Path 2376" d="M192.966,91.917a.908.908,0,0,1-.917.917H182.88a.917.917,0,0,1,0-1.834h9.169A.908.908,0,0,1,192.966,91.917Z" transform="translate(-170.805 -85.437)" fill="#d7e9ff"/>
    <path id="Path_2377" data-name="Path 2377" d="M318.8,92.834h-1.834V91H318.8a.917.917,0,1,1,0,1.834Z" transform="translate(-297.553 -85.437)" fill="#b0d5f7"/>
  </g>
</svg>
