<svg xmlns="http://www.w3.org/2000/svg" width="9.663" height="14.481" viewBox="0 0 9.663 14.481">
  <g id="sort_by_descending" data-name="sort by descending" transform="translate(0 0)">
    <path id="Path_2665" data-name="Path 2665" d="M103.781-512.068a1.388,1.388,0,0,0-.574.365c-1.191,1.12-3.3,3.156-3.354,3.238a1,1,0,0,0-.167.585,1.016,1.016,0,0,0,.815.99c.147.037.6.042,3.563.042,3.708,0,3.558.006,3.869-.161a1.023,1.023,0,0,0,.342-1.454c-.065-.1-3.36-3.346-3.524-3.465A1.239,1.239,0,0,0,103.781-512.068Zm4.152,4.828c.2.161-.031-.068,0,0,.082.181.221-.062,0,0a27.62,27.62,0,0,0-3.869-.314,9.319,9.319,0,0,0-3.563.707c-.221-.062,7.348.023,7.432-.161.045-.1-.141.079,0,0C108.094-507.1,107.812-507.337,107.933-507.241Z" transform="translate(-99.275 512.111)" fill="#1360d2"/>
<!--    <path id="Path_2666" data-name="Path 2666" d="M85.431-293.915a.368.368,0,0,0,.034.549l.079.059,4.568.008c5.031.006,4.7.017,4.819-.17a.37.37,0,0,0-.093-.484,45.09,45.09,0,0,0-4.7-.048H85.518Z" transform="translate(-85.32 300.169)" fill="#494949"/>-->
<!--    <path id="Path_2667" data-name="Path 2667" d="M85.346-253.943a.355.355,0,0,0-.011.6,44.88,44.88,0,0,0,4.669.048,44.88,44.88,0,0,0,4.669-.048.355.355,0,0,0-.011-.6C94.574-254,94.484-254,90-254S85.434-254,85.346-253.943Z" transform="translate(-85.173 261.3)" fill="#494949"/>-->
<!--    <path id="Path_2668" data-name="Path 2668" d="M100.475-196.74a1.156,1.156,0,0,0-.778,1.134,1.1,1.1,0,0,0,.2.636c.051.076.868.914,1.813,1.855,1.949,1.943,1.852,1.867,2.3,1.887a1.04,1.04,0,0,0,.662-.141c.1-.057.738-.687,1.867-1.83,1.881-1.9,1.844-1.861,1.906-2.257a1.181,1.181,0,0,0-.65-1.236l-.184-.088-3.493-.006A26.338,26.338,0,0,0,100.475-196.74Zm7.053.727a.469.469,0,0,1,.167.577c-.065.124-3.278,3.363-3.419,3.445a.344.344,0,0,1-.37.008c-.079-.034-.608-.549-1.751-1.7-.9-.908-1.66-1.691-1.688-1.737a.454.454,0,0,1,.068-.52c.139-.15-.02-.144,3.575-.136C107.435-196.072,107.452-196.072,107.529-196.013Z" transform="translate(-99.286 205.706)" fill="#494949"/>-->
  </g>
</svg>
