<svg id="sort_by_ascending" data-name="sort by ascending" xmlns="http://www.w3.org/2000/svg" width="9.663" height="14.482" viewBox="0 0 9.663 14.482">
  <path id="Path_2665" data-name="Path 2665" d="M103.781-506.89a1.388,1.388,0,0,1-.574-.365c-1.191-1.12-3.3-3.156-3.354-3.238a1,1,0,0,1-.167-.585,1.016,1.016,0,0,1,.815-.99c.147-.037.6-.042,3.563-.042,3.708,0,3.558-.006,3.869.161a1.023,1.023,0,0,1,.342,1.454c-.065.1-3.36,3.346-3.524,3.465A1.239,1.239,0,0,1,103.781-506.89Zm4.152-4.828c.2-.161-.031.068,0,0,.082-.181.221.062,0,0a27.62,27.62,0,0,1-3.869.314,9.319,9.319,0,0,1-3.563-.707c-.221.062,7.348-.023,7.432.161.045.1-.141-.079,0,0C108.094-511.862,107.812-511.621,107.933-511.717Z" transform="translate(-99.275 521.328)" fill="#1360d2"/>
<!--  <path id="Path_2666" data-name="Path 2666" d="M85.431-293.381a.368.368,0,0,1,.034-.549l.079-.059L90.111-294c5.031-.006,4.7-.017,4.819.17a.37.37,0,0,1-.093.484,45.09,45.09,0,0,1-4.7.048H85.518Z" transform="translate(-85.32 301.609)" fill="#494949"/>-->
<!--  <path id="Path_2667" data-name="Path 2667" d="M85.346-253.349a.355.355,0,0,1-.011-.6A44.88,44.88,0,0,1,90-254a44.88,44.88,0,0,1,4.669.048.355.355,0,0,1-.011.6c-.088.057-.178.057-4.658.057S85.434-253.293,85.346-253.349Z" transform="translate(-85.173 260.474)" fill="#494949"/>-->
<!--  <path id="Path_2668" data-name="Path 2668" d="M100.475-191.272a1.156,1.156,0,0,1-.778-1.134,1.1,1.1,0,0,1,.2-.636c.051-.076.868-.914,1.813-1.855,1.949-1.943,1.852-1.867,2.3-1.887a1.04,1.04,0,0,1,.662.141c.1.057.738.687,1.867,1.83,1.881,1.9,1.844,1.861,1.906,2.257a1.181,1.181,0,0,1-.65,1.236l-.184.088-3.493.006A26.338,26.338,0,0,1,100.475-191.272Zm7.053-.727a.469.469,0,0,0,.167-.577c-.065-.124-3.278-3.363-3.419-3.445a.344.344,0,0,0-.37-.008c-.079.034-.608.549-1.751,1.7-.9.908-1.66,1.691-1.688,1.737a.454.454,0,0,0,.068.52c.139.15-.02.144,3.575.136C107.435-191.94,107.452-191.94,107.529-192Z" transform="translate(-99.286 196.788)" fill="#494949"/>-->
</svg>
