<svg xmlns="http://www.w3.org/2000/svg" width="9.662" height="14.48" viewBox="0 0 9.662 14.48">
  <g id="sort_no_fill" data-name="sort no fill" transform="translate(-85.173 512.111)">
    <path id="Path_2669" data-name="Path 2669" d="M103.781-512.068a1.387,1.387,0,0,0-.574.365c-1.191,1.12-3.3,3.156-3.354,3.238a1,1,0,0,0-.167.585,1.016,1.016,0,0,0,.814.99c.147.037.6.042,3.563.042,3.708,0,3.558.006,3.869-.161a1.023,1.023,0,0,0,.342-1.454c-.065-.1-3.36-3.346-3.524-3.464A1.238,1.238,0,0,0,103.781-512.068Zm.557.744c.2.161,3.326,3.238,3.357,3.306a.319.319,0,0,1-.246.436c-.068.017-1.222.028-3.385.028s-3.317-.011-3.385-.028a.317.317,0,0,1-.243-.438c.045-.1,3.337-3.238,3.478-3.317A.358.358,0,0,1,104.338-511.325Z" transform="translate(-14.102)" fill="#168fe4"/>
<!--    <path id="Path_2670" data-name="Path 2670" d="M85.431-293.915a.368.368,0,0,0,.034.549l.079.059,4.567.008c5.031.006,4.7.017,4.819-.17a.37.37,0,0,0-.093-.484,45.1,45.1,0,0,0-4.7-.048H85.518Z" transform="translate(-0.147 -211.943)" fill="#494949"/>-->
<!--    <path id="Path_2671" data-name="Path 2671" d="M85.346-253.943a.355.355,0,0,0-.011.6,44.889,44.889,0,0,0,4.669.048,44.889,44.889,0,0,0,4.669-.048.355.355,0,0,0-.011-.6C94.574-254,94.484-254,90-254S85.434-254,85.346-253.943Z" transform="translate(0 -250.812)" fill="#494949"/>-->
<!--    <path id="Path_2672" data-name="Path 2672" d="M100.475-196.74a1.156,1.156,0,0,0-.778,1.134,1.1,1.1,0,0,0,.2.636c.051.076.868.913,1.813,1.855,1.949,1.943,1.852,1.866,2.3,1.886a1.04,1.04,0,0,0,.662-.141c.1-.057.738-.687,1.867-1.83,1.881-1.9,1.844-1.861,1.906-2.257a1.18,1.18,0,0,0-.65-1.236l-.184-.088-3.493-.006A26.343,26.343,0,0,0,100.475-196.74Zm7.053.727a.469.469,0,0,1,.167.577c-.065.124-3.278,3.363-3.419,3.445a.344.344,0,0,1-.37.008c-.079-.034-.608-.549-1.751-1.7-.9-.908-1.66-1.691-1.688-1.736a.454.454,0,0,1,.068-.52c.139-.15-.02-.144,3.575-.136C107.435-196.072,107.452-196.072,107.528-196.013Z" transform="translate(-14.114 -306.406)" fill="#494949"/>-->
  </g>
</svg>
