<svg xmlns="http://www.w3.org/2000/svg" width="36.528" height="41.265" viewBox="0 0 36.528 41.265">
  <g id="Upload_icon" data-name="Upload icon" transform="translate(-41.899 7.221)">
    <path id="Path_454" data-name="Path 454" d="M67.216,59.307V75.861a2.478,2.478,0,0,1-2.478,2.478H44.377A2.478,2.478,0,0,1,41.9,75.861V49.928a2.478,2.478,0,0,1,2.478-2.478H55.359Z" transform="translate(0 -44.295)" fill="#bed8fb"/>
    <path id="Path_455" data-name="Path 455" d="M91.827,30.889a2.478,2.478,0,0,1-2.478-2.478V2.478A2.478,2.478,0,0,1,91.827,0h10.982c1.888,0,11.857,9.969,11.857,11.857V28.411a2.478,2.478,0,0,1-2.478,2.478Z" transform="translate(-44.295)" fill="#ddeafb"/>
    <path id="Path_456" data-name="Path 456" d="M288.919,11.857v1.048a4,4,0,0,0-4-4h-2.433a2.479,2.479,0,0,1-2.478-2.478V4a4,4,0,0,0-4-4h1.048A7.119,7.119,0,0,1,282.1,2.085l4.738,4.739A7.119,7.119,0,0,1,288.919,11.857Z" transform="translate(-218.548 0)" fill="#bed8fb"/>
    <g id="Group_587" data-name="Group 587" transform="translate(52.199 10.118)">
      <path id="Path_457" data-name="Path 457" d="M211.956,215.212v7.246a.566.566,0,0,0,.566.566h3.8a.566.566,0,0,0,.566-.566v-7.246h1.617a.566.566,0,0,0,.4-.966l-3.613-3.613a1.233,1.233,0,0,0-1.744,0l-3.613,3.613a.566.566,0,0,0,.4.966Z" transform="translate(-208.91 -206.409)" fill="#2893ff"/>
      <path id="Path_458" data-name="Path 458" d="M197.912,154.4h8.821a1.1,1.1,0,0,0,1.1-1.1v-.03a1.1,1.1,0,0,0-1.1-1.1h-8.821a1.1,1.1,0,0,0-1.1,1.1v.03A1.1,1.1,0,0,0,197.912,154.4Z" transform="translate(-196.809 -152.167)" fill="#2893ff"/>
    </g>
    <g id="tick" transform="translate(59.607 -7.221)">
      <circle id="Ellipse_200" data-name="Ellipse 200" cx="9.41" cy="9.41" r="9.41" transform="translate(0 0)" fill="#44c4a1"/>
      <path id="Path_459" data-name="Path 459" d="M81.107,110.145,74.455,116.8l-3.264-3.264-1.657,1.657,4.921,4.921,8.309-8.31Z" transform="translate(-66.74 -105.719)" fill="#ebf0f3"/>
    </g>
  </g>
</svg>
