<svg xmlns="http://www.w3.org/2000/svg" width="233.905" height="170.802" viewBox="0 0 233.905 170.802">
  <g id="job_started_" data-name="job started " transform="translate(-63.734 0)">
    <path id="Path_2532" data-name="Path 2532" d="M894.434,147.6c-.1.152-.209.3-.316.451l-.243-.489-.039-.079L893.6,147l-6.135-12.364,0,0-10.4-20.949v0l-.239-.48v0l-5.147-10.368-.243-.492q.274.007.549.022l.246.494,5.132,10.344,0,0,.239.48v0L887.733,134.1v0l.239.479v0l6.135,12.354.082.166Z" transform="translate(-612.027 -102.327)" fill="#3f3d56"/>
    <path id="Path_2533" data-name="Path 2533" d="M818.642,147.9H772.73c.123-.161.248-.323.378-.482h45.155C818.394,147.578,818.519,147.739,818.642,147.9Z" transform="translate(-537.11 -136.545)" fill="#3f3d56"/>
    <path id="Path_2534" data-name="Path 2534" d="M950.194,234.159c-.014.161-.031.323-.053.482H938.38v-.482Z" transform="translate(-662.845 -202.384)" fill="#3f3d56"/>
    <path id="Path_2535" data-name="Path 2535" d="M778.462,140.828v39.257c-.166-.176-.325-.354-.482-.533V141.361C778.137,141.182,778.3,141,778.462,140.828Z" transform="translate(-541.095 -131.542)" fill="#3f3d56"/>
    <rect id="Rectangle_2472" data-name="Rectangle 2472" width="44.833" height="0.482" transform="translate(237.126 44.671)" fill="#3f3d56"/>
    <path id="Path_2536" data-name="Path 2536" d="M837.778,166.716c0,4.107-6.04,15.69-8.309,19.895a.962.962,0,0,1-1.695,0c-2.269-4.205-8.309-15.788-8.309-19.895a9.156,9.156,0,0,1,18.313,0Z" transform="translate(-572.584 -144.242)" fill="#6c63ff"/>
    <circle id="Ellipse_1207" data-name="Ellipse 1207" cx="4.096" cy="4.096" r="4.096" transform="translate(251.941 18.378)" fill="#fff"/>
    <circle id="Ellipse_1208" data-name="Ellipse 1208" cx="1.687" cy="1.687" r="1.687" transform="translate(254.351 43.438)" fill="#6c63ff"/>
    <path id="Path_2537" data-name="Path 2537" d="M253.215,483.472c.072.034.147.068.222.1l-.2-.065q-1.431-.473-2.841-1-2.266-.849-4.472-1.843-1.576-.708-3.123-1.487a78.626,78.626,0,0,1-23.811-18.428q-.911-1.041-1.786-2.118-.744-.915-1.458-1.855a76.761,76.761,0,0,1-7.18-11.4,78.463,78.463,0,0,1-8.674-36.842c.067-4.337.523-8.764,2.345-12.7a15.184,15.184,0,0,1,7.308-7.566c.27-.121.544-.231.824-.328a10.526,10.526,0,0,1,1.313-.378c4.622-1.017,9.5,1.063,12.944,4.308s5.7,7.527,7.783,11.78A298.689,298.689,0,0,1,249.3,445.661c.051.164.1.325.152.487a21.828,21.828,0,0,0-4.495,4.362L242.6,454.33a21.511,21.511,0,0,0-1.208,3.079q-.206.665-.364,1.349A21.691,21.691,0,0,0,253.215,483.472Z" transform="translate(-102.296 -318.617)" fill="#f2f2f2"/>
    <path id="Path_2538" data-name="Path 2538" d="M441.026,792.427l-.017.084,0,.019c0-.007,0-.012,0-.019,0-.031-.007-.063-.012-.094Z" transform="translate(-285.305 -626.126)" fill="#f2f2f2"/>
    <path id="Path_2539" data-name="Path 2539" d="M271.5,458.078c.1.21.2.419.306.626q-.206.665-.364,1.349l-.328-.675q-2.646-5.425-5.147-10.915c-2.872-6.272-5.646-12.588-8.424-18.9l-8.773-19.932Q244.389,399.665,240,389.7a.572.572,0,0,1-.041-.149c-.051-.463.6-.8.824-.328a.051.051,0,0,1,.007.012q.549,1.24,1.094,2.482,4.384,9.965,8.771,19.932,4.37,9.929,8.742,19.86c2.769,6.289,5.544,12.575,8.431,18.809Q269.634,454.216,271.5,458.078Z" transform="translate(-132.713 -319.913)" fill="#fff"/>
    <path id="Path_2540" data-name="Path 2540" d="M429.4,790.406c-.161-.253-.323-.5-.482-.757-.137-.214-.272-.429-.407-.643-.034-.053-.067-.1-.1-.157q.665.206,1.335.4c.036.06.075.123.116.183.108.171.217.345.328.516.017.029.031.055.043.082C430.422,790.49,429.7,790.873,429.4,790.406Z" transform="translate(-275.756 -623.417)" fill="#fff"/>
    <path id="Path_2541" data-name="Path 2541" d="M258.315,667.135c.2.277.393.554.586.834-.335.074-.667.147-1,.217-.268.053-.535.106-.8.154a45.47,45.47,0,0,1-48.977-24.349,18.286,18.286,0,0,1-2.21-7.226,8.9,8.9,0,0,1,1.752-5.9c.106-.135.219-.265.337-.393a6.551,6.551,0,0,1,.581-.549,7.573,7.573,0,0,1,4.552-1.651,10.5,10.5,0,0,1,3.332.393,23.152,23.152,0,0,1,7.221,4.017,173.219,173.219,0,0,1,21.327,18.491c.217.224.436.453.65.68a21.826,21.826,0,0,0,12.118,14.53.118.118,0,0,1,.022.031C257.975,666.65,258.146,666.891,258.315,667.135Z" transform="translate(-106.858 -501.522)" fill="#f2f2f2"/>
    <path id="Path_2542" data-name="Path 2542" d="M425.906,793.1l-.036-.053.019,0Z" transform="translate(-273.828 -626.598)" fill="#f2f2f2"/>
    <path id="Path_2543" data-name="Path 2543" d="M213.123,637.732l9.935,7.98,9.935,7.98c3.147,2.527,6.291,5.058,9.475,7.538,3.156,2.459,6.351,4.869,9.621,7.174s6.606,4.5,10.048,6.529q.643.379,1.29.75c.3.172.587-.282.286-.454-3.466-1.989-6.831-4.15-10.116-6.425s-6.5-4.667-9.663-7.112c-3.182-2.458-6.32-4.972-9.456-7.49l-9.9-7.951-9.935-7.98-1.236-.993c-.269-.216-.554.24-.286.454Z" transform="translate(-112.262 -508.325)" fill="#fff"/>
    <path id="Path_2544" data-name="Path 2544" d="M778.091,483.472c-.072.034-.147.068-.222.1l.2-.065q1.431-.473,2.841-1,2.266-.849,4.472-1.843,1.576-.708,3.123-1.487a78.621,78.621,0,0,0,23.811-18.428q.911-1.041,1.786-2.118.745-.915,1.458-1.855a76.771,76.771,0,0,0,7.18-11.4,78.464,78.464,0,0,0,8.675-36.842c-.068-4.337-.523-8.764-2.344-12.7a15.185,15.185,0,0,0-7.308-7.566c-.27-.121-.545-.231-.824-.328a10.529,10.529,0,0,0-1.313-.378c-4.621-1.017-9.5,1.063-12.944,4.308s-5.7,7.527-7.783,11.78a298.723,298.723,0,0,0-16.891,42.023c-.051.164-.1.325-.152.487a21.83,21.83,0,0,1,4.495,4.362l2.358,3.819a21.515,21.515,0,0,1,1.208,3.079q.206.665.364,1.349A21.691,21.691,0,0,1,778.091,483.472Z" transform="translate(-541.011 -318.617)" fill="#f2f2f2"/>
    <path id="Path_2545" data-name="Path 2545" d="M758.86,792.427l.017.084.005.019c0-.007,0-.012,0-.019.005-.031.008-.063.012-.094Z" transform="translate(-526.582 -626.126)" fill="#f2f2f2"/>
    <path id="Path_2546" data-name="Path 2546" d="M828.166,458.078c-.1.21-.2.419-.306.626q.206.665.364,1.349l.328-.675q2.645-5.425,5.147-10.915c2.872-6.272,5.646-12.588,8.424-18.9l8.773-19.932q4.384-9.968,8.771-19.932a.573.573,0,0,0,.041-.149c.051-.463-.6-.8-.824-.328a.055.055,0,0,0-.007.012q-.549,1.24-1.094,2.482l-8.771,19.932-8.742,19.86c-2.769,6.289-5.544,12.575-8.431,18.809Q830.034,454.216,828.166,458.078Z" transform="translate(-578.956 -319.913)" fill="#fff"/>
    <path id="Path_2547" data-name="Path 2547" d="M764.767,790.406c.161-.253.323-.5.482-.757.137-.214.272-.429.407-.643.034-.053.067-.1.1-.157q-.665.206-1.335.4c-.036.06-.075.123-.116.183-.109.171-.217.345-.328.516a.884.884,0,0,0-.044.082C763.741,790.49,764.466,790.873,764.767,790.406Z" transform="translate(-530.407 -623.417)" fill="#fff"/>
    <path id="Path_2548" data-name="Path 2548" d="M774.715,667.134c-.2.277-.393.554-.586.834.335.075.667.147,1,.217.267.053.535.106.8.154a45.471,45.471,0,0,0,48.977-24.349,18.284,18.284,0,0,0,2.21-7.226,8.9,8.9,0,0,0-1.752-5.9c-.106-.135-.219-.265-.337-.393a6.6,6.6,0,0,0-.581-.549,7.573,7.573,0,0,0-4.552-1.651,10.5,10.5,0,0,0-3.333.393,23.152,23.152,0,0,0-7.221,4.017,173.224,173.224,0,0,0-21.327,18.491c-.217.224-.436.453-.651.68a21.825,21.825,0,0,1-12.118,14.53.116.116,0,0,0-.022.031Q774.967,666.77,774.715,667.134Z" transform="translate(-538.172 -501.522)" fill="#f2f2f2"/>
    <path id="Path_2549" data-name="Path 2549" d="M773.98,793.1l.036-.053-.019,0Z" transform="translate(-538.058 -626.598)" fill="#f2f2f2"/>
    <path id="Path_2550" data-name="Path 2550" d="M826.768,637.732l-9.935,7.98-9.935,7.98c-3.147,2.527-6.291,5.058-9.475,7.538-3.156,2.459-6.351,4.869-9.621,7.174s-6.607,4.5-10.048,6.529q-.643.379-1.29.75c-.3.172-.588-.282-.287-.454,3.466-1.989,6.831-4.15,10.116-6.425s6.5-4.667,9.663-7.112c3.182-2.458,6.32-4.973,9.455-7.49l9.9-7.951,9.936-7.98,1.236-.993c.269-.216.554.24.286.454Z" transform="translate(-539.629 -508.325)" fill="#fff"/>
    <path id="Path_2566" data-name="Path 2566" d="M413.972,795.474h-177.9a.287.287,0,0,1,0-.574h177.9a.287.287,0,0,1,0,.574Z" transform="translate(-129.548 -628.011)" fill="#3f3d56"/>
    <path id="Path_2574" data-name="Path 2574" d="M800.242,147.442h.055v-.08a.8.8,0,0,1-.056.08Zm-.371-33.8c-.123-.161-.248-.323-.378-.482a28.863,28.863,0,0,0-21.2-10.841c-.183-.01-.366-.017-.549-.022-.275-.007-.549-.012-.826-.012a28.828,28.828,0,0,0-21.209,9.286c-.166.176-.325.354-.482.533q-.459.517-.887,1.055c-.13.159-.255.32-.378.482a28.85,28.85,0,0,0,1.265,36.654c.157.178.316.357.482.533a28.876,28.876,0,0,0,44.724-2.822c.106-.149.212-.3.316-.451a28.681,28.681,0,0,0,4.889-13.014c.022-.159.039-.32.053-.482q.141-1.41.142-2.86A28.75,28.75,0,0,0,799.87,113.645Zm5.279,20.9a28.179,28.179,0,0,1-4.65,12.52q-.1.148-.2.3a.814.814,0,0,1-.055.08c-.017.026-.036.053-.055.08a28.4,28.4,0,0,1-44.481,2.6c-.166-.183-.328-.366-.482-.554a28.376,28.376,0,0,1-.658-35.919c.128-.161.255-.323.388-.482.087-.108.176-.214.27-.32.154-.188.316-.371.482-.554a28.353,28.353,0,0,1,21.209-9.518q.539,0,1.07.022c.186,0,.369.014.552.024a28.4,28.4,0,0,1,20.339,10.347c.133.159.26.32.388.482a28.439,28.439,0,0,1,5.942,20.419C805.188,134.225,805.172,134.387,805.15,134.546Zm-4.908,12.9h.055v-.08a.787.787,0,0,1-.055.08Z" transform="translate(-518.338 -102.289)" fill="#ccc"/>
    <g id="undraw_towing_6yy4" transform="translate(0 81.989)">
      <path id="Path_2575" data-name="Path 2575" d="M110.492,408.362l10.051-15.95L110.488,410.1l-.005,1.817q-1.076-.013-2.129-.082l.82-23.347-.011-.18.018-.034.078-2.206L98.749,368.586l10.52,15.829.031.467.619-17.639-9.034-18.087,9.1,14.987.424-36.562,0-.122v.12l.206,28.826,8.633-11.534-8.64,14.017-.04,15.788,8.01-15.248L110.572,377l-.022,8.779,11.635-21.231L110.54,388.84Z" transform="translate(-35.016 -327.46)" fill="#d0cde1"/>
      <rect id="Rectangle_2473" data-name="Rectangle 2473" width="2.826" height="20.062" transform="translate(213.724 13.579)" fill="#3f3d56"/>
      <path id="Path_2576" data-name="Path 2576" d="M333.038,668.311c-4.377,7.311-234.136,6.7-233.787,0C103.627,661,333.386,661.614,333.038,668.311Z" transform="translate(-35.4 -584.754)" fill="#d0cde1"/>
      <rect id="Rectangle_2475" data-name="Rectangle 2475" width="24.583" height="9.607" transform="translate(244.241 53.985)" fill="#3f3d56"/>
      <rect id="Rectangle_2476" data-name="Rectangle 2476" width="121.22" height="10.737" transform="translate(145.344 62.462)" fill="#3f3d56"/>
      <path id="Path_2577" data-name="Path 2577" d="M688.3,306.05H659.2V269.458h21.757l7.347,18.455Z" transform="translate(-441.661 -238.219)" fill="#d0cde1"/>
      <rect id="Rectangle_2477" data-name="Rectangle 2477" width="12.433" height="12.433" transform="translate(222.06 33.499)" fill="#fff"/>
      <path id="Path_2578" data-name="Path 2578" d="M745.83,292.185h-7.912V279.752h3.391Z" transform="translate(-502.013 -246.111)" fill="#fff"/>
      <rect id="Rectangle_2478" data-name="Rectangle 2478" width="2.826" height="5.369" transform="translate(222.625 52.996)" fill="#3f3d56"/>
      <path id="Path_2579" data-name="Path 2579" d="M748.212,313.661h.141a2.684,2.684,0,0,1,2.684,2.684h0a2.684,2.684,0,0,1-2.684,2.684h-.141Z" transform="translate(-509.905 -272.109)" fill="#3f3d56"/>
      <path id="Path_2580" data-name="Path 2580" d="M297.7,403.278h.141a2.684,2.684,0,0,1,2.684,2.684h0a2.684,2.684,0,0,1-2.684,2.684H297.7Z" transform="translate(-164.509 -340.816)" fill="#3f3d56"/>
      <path id="Path_2581" data-name="Path 2581" d="M885.169,547.422a13.98,13.98,0,0,1,10.866,5.409h5.522l-5.369-14.955-25.007-4.932.706,19.887H874.3A13.98,13.98,0,0,1,885.169,547.422Z" transform="translate(-627.223 -485.001)" fill="#d0cde1"/>
      <circle id="Ellipse_1209" data-name="Ellipse 1209" cx="12.291" cy="12.291" r="12.291" transform="translate(245.936 59.071)" fill="#3f3d56"/>
      <circle id="Ellipse_1210" data-name="Ellipse 1210" cx="6.469" cy="6.469" r="6.469" transform="translate(251.759 64.893)" fill="#d0cde1"/>
      <circle id="Ellipse_1211" data-name="Ellipse 1211" cx="10.737" cy="10.737" r="10.737" transform="translate(136.443 62.038)" fill="#3f3d56"/>
      <circle id="Ellipse_1212" data-name="Ellipse 1212" cx="5.651" cy="5.651" r="5.651" transform="translate(141.53 67.124)" fill="#d0cde1"/>
      <rect id="Rectangle_2479" data-name="Rectangle 2479" width="5.934" height="42.808" transform="translate(212.453 26.153)" fill="#3f3d56"/>
      <rect id="Rectangle_2480" data-name="Rectangle 2480" width="85.334" height="2.543" transform="translate(133.052 61.191)" fill="#3f3d56"/>
      <rect id="Rectangle_2483" data-name="Rectangle 2483" width="2.826" height="1.13" transform="translate(237.177 46.639)" fill="#3f3d56"/>
      <path id="Path_2584" data-name="Path 2584" d="M0,0H.141A2.684,2.684,0,0,1,2.826,2.684h0A2.684,2.684,0,0,1,.141,5.369H0Z" transform="matrix(-0.935, 0.354, -0.354, -0.935, 270.812, 58.115)" fill="#3f3d56"/>
      <rect id="Rectangle_2485" data-name="Rectangle 2485" width="10.134" height="7.665" transform="translate(93.149 30.893) rotate(-15.637)" fill="#fff"/>
      <circle id="Ellipse_1218" data-name="Ellipse 1218" cx="3.956" cy="3.956" r="3.956" transform="translate(211.181 10.188)" fill="#3f3d56"/>
      <g id="undraw_Container_ship_ok1c" transform="translate(0 18.254)">
        <rect id="Rectangle_2488" data-name="Rectangle 2488" width="35.695" height="21.626" transform="translate(140.472 0.13)" fill="#4d8af0"/>
        <rect id="Rectangle_2489" data-name="Rectangle 2489" width="35.695" height="21.626" transform="translate(176.167 0.13)" fill="#3ad29f"/>
        <rect id="Rectangle_2492" data-name="Rectangle 2492" width="35.695" height="21.626" transform="translate(140.472 21.756)" fill="#3ad29f"/>
        <rect id="Rectangle_2493" data-name="Rectangle 2493" width="35.695" height="21.626" transform="translate(176.167 21.756)" fill="#fdd835"/>
        <g id="Group_16459" data-name="Group 16459" transform="translate(146.855 0)" opacity="0.1">
          <rect id="Rectangle_2497" data-name="Rectangle 2497" width="4.69" height="21.626"/>
          <rect id="Rectangle_2498" data-name="Rectangle 2498" width="4.69" height="21.626" transform="translate(9.119)"/>
          <rect id="Rectangle_2499" data-name="Rectangle 2499" width="4.69" height="21.626" transform="translate(18.238)"/>
        </g>
        <g id="Group_16460" data-name="Group 16460" transform="translate(182.551 0)" opacity="0.1">
          <rect id="Rectangle_2500" data-name="Rectangle 2500" width="4.69" height="21.626"/>
          <rect id="Rectangle_2501" data-name="Rectangle 2501" width="4.69" height="21.626" transform="translate(9.119)"/>
          <rect id="Rectangle_2502" data-name="Rectangle 2502" width="4.69" height="21.626" transform="translate(18.239)"/>
        </g>
        <g id="Group_16463" data-name="Group 16463" transform="translate(146.855 21.626)" opacity="0.1">
          <rect id="Rectangle_2509" data-name="Rectangle 2509" width="4.69" height="21.626"/>
          <rect id="Rectangle_2510" data-name="Rectangle 2510" width="4.69" height="21.626" transform="translate(9.119)"/>
          <rect id="Rectangle_2511" data-name="Rectangle 2511" width="4.69" height="21.626" transform="translate(18.238)"/>
        </g>
        <g id="Group_16464" data-name="Group 16464" transform="translate(182.551 21.626)" opacity="0.1">
          <rect id="Rectangle_2512" data-name="Rectangle 2512" width="4.69" height="21.626"/>
          <rect id="Rectangle_2513" data-name="Rectangle 2513" width="4.69" height="21.626" transform="translate(9.119)"/>
          <rect id="Rectangle_2514" data-name="Rectangle 2514" width="4.69" height="21.626" transform="translate(18.239)"/>
        </g>
      </g>
    </g>
  </g>
</svg>
