<svg xmlns="http://www.w3.org/2000/svg" xmlns:xlink="http://www.w3.org/1999/xlink" width="166" height="167" viewBox="0 0 166 167">
  <defs>
    <filter id="Ellipse_165" x="0" y="0" width="166" height="167" filterUnits="userSpaceOnUse">
      <feOffset dx="1" dy="2" input="SourceAlpha"/>
      <feGaussianBlur stdDeviation="6.5" result="blur"/>
      <feFlood flood-opacity="0.161"/>
      <feComposite operator="in" in2="blur"/>
      <feComposite in="SourceGraphic"/>
    </filter>
    <filter id="Ellipse_166" x="27.5" y="26.5" width="120" height="120" filterUnits="userSpaceOnUse">
      <feOffset dx="6" dy="7" input="SourceAlpha"/>
      <feGaussianBlur stdDeviation="3" result="blur-2"/>
      <feFlood flood-opacity="0.161"/>
      <feComposite operator="in" in2="blur-2"/>
      <feComposite in="SourceGraphic"/>
    </filter>
  </defs>
  <g id="Upload_Token" data-name="Upload Token" transform="translate(-596.5 -267.5)">
    <g transform="matrix(1, 0, 0, 1, 596.5, 267.5)" filter="url(#Ellipse_165)">
      <ellipse id="Ellipse_165-2" data-name="Ellipse 165" cx="63.5" cy="64" rx="63.5" ry="64" transform="translate(18.5 17.5)" fill="#f5f5f5"/>
    </g>
    <g transform="matrix(1, 0, 0, 1, 596.5, 267.5)" filter="url(#Ellipse_166)">
      <circle id="Ellipse_166-2" data-name="Ellipse 166" cx="51" cy="51" r="51" transform="translate(30.5 28.5)" fill="#fff"/>
    </g>
    <g id="upload" transform="translate(660.355 310.973)">
      <g id="Group_301" data-name="Group 301" transform="translate(0 0)">
        <g id="Group_300" data-name="Group 300">
          <path id="Path_404" data-name="Path 404" d="M35.633,118.418l-7.315-11.379a.816.816,0,0,0-.684-.373h-6.5a.813.813,0,1,0,0,1.626h6.058l6.27,9.753H28.447A3.255,3.255,0,0,0,25.2,121.3a1.627,1.627,0,0,1-1.625,1.626H12.191a1.627,1.627,0,0,1-1.625-1.626,3.255,3.255,0,0,0-3.251-3.251H2.3l6.27-9.753H14.63a.813.813,0,0,0,0-1.626h-6.5a.816.816,0,0,0-.684.373L.129,118.418a.815.815,0,0,0-.129.44v12.191A3.255,3.255,0,0,0,3.251,134.3H32.51a3.255,3.255,0,0,0,3.251-3.251V118.857A.815.815,0,0,0,35.633,118.418Zm-1.5,12.631a1.627,1.627,0,0,1-1.626,1.625H3.251a1.627,1.627,0,0,1-1.625-1.625V119.67H7.315A1.627,1.627,0,0,1,8.94,121.3a3.255,3.255,0,0,0,3.251,3.251H23.57a3.255,3.255,0,0,0,3.251-3.251,1.627,1.627,0,0,1,1.625-1.626h5.689Z" transform="translate(0 -98.538)" fill="rgba(14,27,61,0.75)"/>
          <path id="Path_405" data-name="Path 405" d="M161.389,6.265l3.489-3.489V20.32a.813.813,0,1,0,1.626,0V2.776l3.489,3.489a.813.813,0,1,0,1.149-1.149L166.266.239a.812.812,0,0,0-1.149,0L160.24,5.115a.813.813,0,1,0,1.149,1.149Z" transform="translate(-147.81 -0.001)" fill="rgba(14,27,61,0.75)"/>
        </g>
      </g>
    </g>
    <text id="UPLOAD_TOKEN-2" data-name="UPLOAD
TOKEN" transform="translate(678 366)" fill="#0e1b3d" font-size="12" font-family="Dubai-Regular, Dubai"><tspan x="-22.56" y="0">UPLOAD</tspan><tspan font-size="8"><tspan x="-13.693" y="11">TOKEN</tspan></tspan></text>
  </g>
</svg>
