<svg xmlns="http://www.w3.org/2000/svg" width="26.156" height="25.066" viewBox="0 0 26.156 25.066">
  <path id="star" d="M5.855,25.559a1.392,1.392,0,0,1-1.355-1.7l1.683-7.412-5.707-5a1.391,1.391,0,0,1,.788-2.433l7.551-.685L11.8,1.337a1.39,1.39,0,0,1,2.557,0l2.985,6.987,7.549.685a1.392,1.392,0,0,1,.79,2.433l-5.707,5,1.683,7.412a1.39,1.39,0,0,1-2.068,1.5l-6.511-3.891L6.568,25.361a1.393,1.393,0,0,1-.713.2Zm7.224-5.767a1.394,1.394,0,0,1,.713.2l6.145,3.675-1.588-7a1.39,1.39,0,0,1,.44-1.355l5.388-4.726-7.129-.647A1.389,1.389,0,0,1,15.893,9.1L13.079,2.505,10.261,9.1a1.385,1.385,0,0,1-1.152.839l-7.13.647,5.388,4.726a1.387,1.387,0,0,1,.44,1.356l-1.587,7,6.145-3.674a1.393,1.393,0,0,1,.713-.2ZM8.757,8.458a0,0,0,0,1,0,0Zm8.64,0v0S17.4,8.456,17.4,8.455Zm0,0" transform="translate(-0.001 -0.492)"/>
</svg>
