<svg xmlns="http://www.w3.org/2000/svg" width="148" height="148" viewBox="0 0 148 148">
  <g id="truck" transform="translate(0 0)">
    <path id="Path_408" data-name="Path 408" d="M148,74a73.706,73.706,0,0,1-14.658,44.215q-1.555,2.085-3.253,4.057a74.366,74.366,0,0,1-6.232,6.409q-1.821,1.663-3.754,3.2a73.909,73.909,0,0,1-92.207,0q-1.931-1.54-3.754-3.2a74.406,74.406,0,0,1-6.232-6.412q-1.694-1.966-3.253-4.056A74,74,0,1,1,148,74Zm0,0" fill="#66cc9a"/>
    <path id="Path_409" data-name="Path 409" d="M86.759,422.891v18.835a74.088,74.088,0,0,1-14.812-9.191q-1.931-1.54-3.754-3.2a74.411,74.411,0,0,1-6.232-6.412v-.027Zm0,0" transform="translate(-44.05 -300.649)" fill="#272f38"/>
    <path id="Path_410" data-name="Path 410" d="M389.048,422.891v.03a74.366,74.366,0,0,1-6.232,6.409q-1.821,1.663-3.754,3.2a74.091,74.091,0,0,1-14.812,9.191V422.891Zm0,0" transform="translate(-258.959 -300.649)" fill="#272f38"/>
    <path id="Path_411" data-name="Path 411" d="M167.9,119.4a503.333,503.333,0,0,1-90.423,1.8q-10.03-.7-20.065-1.8a503.564,503.564,0,0,1,0-110.486Q67.443,7.811,77.476,7.111A503.23,503.23,0,0,1,167.9,8.917,503.843,503.843,0,0,1,167.9,119.4Zm0,0" transform="translate(-38.655 -4.179)" fill="#d93d3d"/>
    <path id="Path_412" data-name="Path 412" d="M217.268,119.4a503.333,503.333,0,0,1-90.423,1.8,538.4,538.4,0,0,1,0-114.1,503.23,503.23,0,0,1,90.423,1.807,503.843,503.843,0,0,1,0,110.486Zm0,0" transform="translate(-88.025 -4.179)" fill="#fc5b5b"/>
    <path id="Path_413" data-name="Path 413" d="M183.764,159.384a611.585,611.585,0,0,1-62.776,1.427q-13.907-.4-27.812-1.427A188.115,188.115,0,0,1,91.4,112.456a16.454,16.454,0,0,1,15.55-15q8.713-.449,17.427-.648s.006,0,.009,0q22.8-.528,45.6.648a16.458,16.458,0,0,1,15.552,15,188.277,188.277,0,0,1-1.774,46.929Zm0,0" transform="translate(-64.47 -68.711)" fill="#fd9b3d"/>
    <path id="Path_414" data-name="Path 414" d="M230.306,159.385a611.577,611.577,0,0,1-62.776,1.427q-4.41-.264-8.821-.591a193.5,193.5,0,0,1-1.822-48.215,16.908,16.908,0,0,1,14.035-15.194s.006,0,.009,0q22.8-.528,45.6.648a16.456,16.456,0,0,1,15.551,15,188.223,188.223,0,0,1-1.773,46.929Zm0,0" transform="translate(-111.013 -68.712)" fill="#fee887"/>
    <path id="Path_415" data-name="Path 415" d="M192.944,168.133q-4.51.3-9.037.531c-10.424.539-20.885.81-31.245.81-13.361,0-26.888-.449-40.284-1.34a182.947,182.947,0,0,1-1.041-41,10.741,10.741,0,0,1,10.1-9.743c10.358-.533,20.861-.8,31.221-.8,8.115,0,16.322.167,24.477.5q3.381.13,6.742.306a10.739,10.739,0,0,1,10.1,9.743,183.014,183.014,0,0,1-1.041,41Zm0,0" transform="translate(-78.662 -82.888)" fill="#fff"/>
    <path id="Path_416" data-name="Path 416" d="M183.907,168.664c-10.424.539-20.885.81-31.245.81-13.361,0-26.889-.449-40.284-1.34a182.947,182.947,0,0,1-1.041-41,10.741,10.741,0,0,1,10.1-9.743c10.358-.533,20.861-.8,31.221-.8,8.115,0,16.322.167,24.477.5a11.069,11.069,0,0,1,7.811,9.58,188.648,188.648,0,0,1-1.043,42Zm0,0" transform="translate(-78.662 -82.888)" fill="#d8ebf7"/>
    <path id="Path_417" data-name="Path 417" d="M162.281,345.788a74.259,74.259,0,0,1-14.354,17.874q-49.858,1.179-99.715,0a74.217,74.217,0,0,1-14.356-17.881,39.512,39.512,0,0,1,1.3-8.5c.909-3.426,6.433-6.017,13.108-6.174q49.8-1.177,99.607,0c6.676.157,12.2,2.748,13.106,6.174a39.746,39.746,0,0,1,1.3,8.5Zm0,0" transform="translate(-24.069 -234.981)" fill="#fd9b3d"/>
    <path id="Path_418" data-name="Path 418" d="M174.617,298.189a12.43,12.43,0,0,1-11.776,10.764q-38.51,1.739-77.029.3-3.657-.137-7.309-.3a12.434,12.434,0,0,1-11.777-10.764,122.6,122.6,0,0,1,.069-32.917A11.866,11.866,0,0,1,78.02,255.051q3.692-.168,7.385-.308,38.963-1.467,77.921.308a11.866,11.866,0,0,1,11.224,10.221,122.457,122.457,0,0,1,.069,32.917Zm0,0" transform="translate(-46.673 -180.635)" fill="#fd9b3d"/>
    <path id="Path_419" data-name="Path 419" d="M199.372,298.19A12.43,12.43,0,0,1,187.6,308.954q-38.51,1.739-77.029.3a12.8,12.8,0,0,1-8.986-10.56,126.4,126.4,0,0,1,.069-33.949,12.244,12.244,0,0,1,8.509-10q38.963-1.467,77.921.308A11.866,11.866,0,0,1,199.3,265.273a122.457,122.457,0,0,1,.069,32.917Zm0,0" transform="translate(-71.428 -180.635)" fill="#fee887"/>
    <path id="Path_420" data-name="Path 420" d="M181.211,259.313a11.893,11.893,0,0,1-8.589,4.261q-42.651,1.946-85.305,0a11.889,11.889,0,0,1-8.589-4.261,11.858,11.858,0,0,1,8.589-4.26q42.655-1.946,85.305,0A11.859,11.859,0,0,1,181.211,259.313Zm0,0" transform="translate(-55.97 -180.635)" fill="#fd9b3d"/>
    <path id="Path_421" data-name="Path 421" d="M214.372,358.814q-26.1,1.258-52.2,0a46.3,46.3,0,0,1-.606-20.159,3.551,3.551,0,0,1,3.338-2.869q23.37-1.009,46.74,0a3.549,3.549,0,0,1,3.338,2.869,46.283,46.283,0,0,1-.605,20.159Zm0,0" transform="translate(-114.271 -238.364)" fill="#fd9b3d"/>
    <path id="Path_422" data-name="Path 422" d="M92,326.209H81.667a3.991,3.991,0,0,1-3.992-3.992v-4.976a3.992,3.992,0,0,1,3.992-3.992H92a3.992,3.992,0,0,1,3.993,3.992v4.976A3.992,3.992,0,0,1,92,326.209Zm0,0" transform="translate(-55.223 -222.701)" fill="#fd9b3d"/>
    <path id="Path_423" data-name="Path 423" d="M88.757,330.417a1.11,1.11,0,0,1-1.109-1.11v-4.976a1.11,1.11,0,0,1,1.109-1.109H99.086a1.111,1.111,0,0,1,1.11,1.109v4.976a1.111,1.111,0,0,1-1.11,1.11Zm0,0" transform="translate(-62.313 -229.791)" fill="#d8ebf7"/>
    <path id="Path_424" data-name="Path 424" d="M381.957,326.209H371.628a3.991,3.991,0,0,1-3.992-3.992v-4.976a3.992,3.992,0,0,1,3.992-3.992h10.328a3.992,3.992,0,0,1,3.993,3.992v4.976A3.992,3.992,0,0,1,381.957,326.209Zm0,0" transform="translate(-261.367 -222.701)" fill="#fd9b3d"/>
    <path id="Path_425" data-name="Path 425" d="M378.715,330.417a1.111,1.111,0,0,1-1.11-1.11v-4.976a1.111,1.111,0,0,1,1.11-1.109h10.328a1.111,1.111,0,0,1,1.11,1.109v4.976a1.111,1.111,0,0,1-1.11,1.11Zm0,0" transform="translate(-268.454 -229.791)" fill="#d8ebf7"/>
    <path id="Path_426" data-name="Path 426" d="M169.392,405.856a74.27,74.27,0,0,1-9.485,10.466q-1.821,1.663-3.754,3.2H63.947q-1.931-1.54-3.754-3.2a74.351,74.351,0,0,1-9.485-10.468,6.273,6.273,0,0,1,3.779-1.26H165.61a6.255,6.255,0,0,1,3.783,1.262Zm0,0" transform="translate(-36.05 -287.641)" fill="#e5ded4"/>
    <g id="Group_302" data-name="Group 302" transform="translate(49.351 99.799)">
      <path id="Path_427" data-name="Path 427" d="M211.115,363.8l.233,0a3.271,3.271,0,0,0,3.328-3.275v-11.64a3.27,3.27,0,0,0-3.328-3.273l-.233,0a3.271,3.271,0,0,0-3.2,3.273v11.631A3.272,3.272,0,0,0,211.115,363.8Zm0,0" transform="translate(-197.165 -345.507)" fill="#484f60"/>
      <path id="Path_428" data-name="Path 428" d="M284.016,363.8l.233,0a3.271,3.271,0,0,0,3.2-3.275V348.889a3.27,3.27,0,0,0-3.2-3.273l-.233,0a3.271,3.271,0,0,0-3.329,3.273v11.64A3.271,3.271,0,0,0,284.016,363.8Zm0,0" transform="translate(-248.902 -345.507)" fill="#484f60"/>
      <path id="Path_429" data-name="Path 429" d="M251.062,348.526a3.274,3.274,0,0,0-3.269-3.276h-.224a3.274,3.274,0,0,0-3.269,3.276v11.847a3.274,3.274,0,0,0,3.269,3.276h.224a3.274,3.274,0,0,0,3.269-3.276Zm0,0" transform="translate(-223.033 -345.25)" fill="#484f60"/>
      <path id="Path_430" data-name="Path 430" d="M174.31,346.674l-.061,0a3.265,3.265,0,0,0-3.107,2.8,43.4,43.4,0,0,0,0,11.962,3.265,3.265,0,0,0,3.107,2.8l.061,0a3.279,3.279,0,0,0,3.41-3.272V349.946A3.278,3.278,0,0,0,174.31,346.674Zm0,0" transform="translate(-170.727 -346.26)" fill="#484f60"/>
      <path id="Path_431" data-name="Path 431" d="M320.545,346.676l-.061,0a3.279,3.279,0,0,0-3.41,3.272v11.027a3.279,3.279,0,0,0,3.41,3.272l.061,0a3.263,3.263,0,0,0,3.107-2.8,43.4,43.4,0,0,0,0-11.962,3.262,3.262,0,0,0-3.107-2.8Zm0,0" transform="translate(-274.771 -346.261)" fill="#484f60"/>
    </g>
    <path id="Path_432" data-name="Path 432" d="M206.142,405.856a74.269,74.269,0,0,1-9.485,10.466q-1.821,1.663-3.754,3.2H108.7a6.305,6.305,0,0,1-6.3-6.306V410.9a6.3,6.3,0,0,1,6.3-6.307h93.656a6.255,6.255,0,0,1,3.783,1.262Zm0,0" transform="translate(-72.799 -287.641)" fill="#fcf9f4"/>
    <path id="Path_433" data-name="Path 433" d="M408.337,370.981a4.723,4.723,0,1,1-4.723-4.723A4.723,4.723,0,0,1,408.337,370.981Zm0,0" transform="translate(-283.586 -260.387)" fill="#fd9b3d"/>
    <path id="Path_434" data-name="Path 434" d="M408.812,378.792a2.609,2.609,0,1,1,2.608-2.609A2.613,2.613,0,0,1,408.812,378.792Zm0,0" transform="translate(-288.785 -265.588)" fill="#fc5b5b"/>
    <path id="Path_435" data-name="Path 435" d="M89.869,370.981a4.723,4.723,0,1,1-4.723-4.723A4.722,4.722,0,0,1,89.869,370.981Zm0,0" transform="translate(-57.175 -260.387)" fill="#fd9b3d"/>
    <path id="Path_436" data-name="Path 436" d="M90.348,378.792a2.609,2.609,0,1,1,2.608-2.609A2.612,2.612,0,0,1,90.348,378.792Zm0,0" transform="translate(-62.377 -265.588)" fill="#fc5b5b"/>
  </g>
</svg>
