<svg id="information-button" xmlns="http://www.w3.org/2000/svg" width="17.625" height="17.625" viewBox="0 0 17.625 17.625">
  <path id="Path_2174" data-name="Path 2174" d="M8.812,0a8.813,8.813,0,1,0,8.813,8.812A8.813,8.813,0,0,0,8.812,0Zm1.834,13.658q-.68.269-1.085.409a2.864,2.864,0,0,1-.941.141,1.876,1.876,0,0,1-1.281-.4,1.3,1.3,0,0,1-.456-1.02,3.7,3.7,0,0,1,.034-.492c.023-.167.06-.355.11-.566l.568-2.005c.05-.192.093-.375.128-.545A2.418,2.418,0,0,0,7.772,8.7a.727.727,0,0,0-.158-.535.9.9,0,0,0-.607-.15,1.592,1.592,0,0,0-.451.067c-.153.047-.286.09-.395.131l.15-.618q.557-.227,1.067-.389a3.152,3.152,0,0,1,.962-.163,1.841,1.841,0,0,1,1.262.4,1.314,1.314,0,0,1,.443,1.027q0,.131-.031.46a3.08,3.08,0,0,1-.113.605l-.565,2c-.046.16-.087.344-.125.549a2.9,2.9,0,0,0-.054.467.671.671,0,0,0,.178.543,1,1,0,0,0,.617.145,1.79,1.79,0,0,0,.467-.072,2.655,2.655,0,0,0,.377-.127Zm-.1-8.115a1.348,1.348,0,0,1-.951.367,1.362,1.362,0,0,1-.955-.367,1.172,1.172,0,0,1-.4-.89,1.184,1.184,0,0,1,.4-.892A1.352,1.352,0,0,1,9.6,3.389a1.337,1.337,0,0,1,.951.371,1.2,1.2,0,0,1,0,1.782Z" fill="#168fe4"/>
</svg>
